<mxfile host="app.diagrams.net" agent="Mozilla/5.0 (Windows NT 10.0; Win64; x64) AppleWebKit/537.36 (KHTML, like Gecko) Chrome/128.0.0.0 Safari/537.36 OPR/114.0.0.0" version="24.9.0">
  <diagram id="C5RBs43oDa-KdzZeNtuy" name="Page-1">
    <mxGraphModel dx="3604" dy="2672" grid="1" gridSize="10" guides="1" tooltips="1" connect="1" arrows="1" fold="1" page="1" pageScale="1" pageWidth="827" pageHeight="1169" math="0" shadow="0">
      <root>
        <mxCell id="WIyWlLk6GJQsqaUBKTNV-0" />
        <mxCell id="WIyWlLk6GJQsqaUBKTNV-1" parent="WIyWlLk6GJQsqaUBKTNV-0" />
        <mxCell id="zkfFHV4jXpPFQw0GAbJ--0" value="ModeloBarco" style="swimlane;fontStyle=2;align=center;verticalAlign=top;childLayout=stackLayout;horizontal=1;startSize=26;horizontalStack=0;resizeParent=1;resizeLast=0;collapsible=1;marginBottom=0;rounded=0;shadow=0;strokeWidth=1;" parent="WIyWlLk6GJQsqaUBKTNV-1" vertex="1">
          <mxGeometry x="410" y="10" width="250" height="430" as="geometry">
            <mxRectangle x="230" y="140" width="160" height="26" as="alternateBounds" />
          </mxGeometry>
        </mxCell>
        <mxCell id="zkfFHV4jXpPFQw0GAbJ--1" value="private int x" style="text;align=left;verticalAlign=top;spacingLeft=4;spacingRight=4;overflow=hidden;rotatable=0;points=[[0,0.5],[1,0.5]];portConstraint=eastwest;" parent="zkfFHV4jXpPFQw0GAbJ--0" vertex="1">
          <mxGeometry y="26" width="250" height="26" as="geometry" />
        </mxCell>
        <mxCell id="zkfFHV4jXpPFQw0GAbJ--2" value="private int y" style="text;align=left;verticalAlign=top;spacingLeft=4;spacingRight=4;overflow=hidden;rotatable=0;points=[[0,0.5],[1,0.5]];portConstraint=eastwest;rounded=0;shadow=0;html=0;" parent="zkfFHV4jXpPFQw0GAbJ--0" vertex="1">
          <mxGeometry y="52" width="250" height="26" as="geometry" />
        </mxCell>
        <mxCell id="zkfFHV4jXpPFQw0GAbJ--3" value="private final int longitud" style="text;align=left;verticalAlign=top;spacingLeft=4;spacingRight=4;overflow=hidden;rotatable=0;points=[[0,0.5],[1,0.5]];portConstraint=eastwest;rounded=0;shadow=0;html=0;" parent="zkfFHV4jXpPFQw0GAbJ--0" vertex="1">
          <mxGeometry y="78" width="250" height="26" as="geometry" />
        </mxCell>
        <mxCell id="CDM7iMGNca0mMvF4ytL8-1" value="private int piezasRestantes" style="text;align=left;verticalAlign=top;spacingLeft=4;spacingRight=4;overflow=hidden;rotatable=0;points=[[0,0.5],[1,0.5]];portConstraint=eastwest;rounded=0;shadow=0;html=0;" parent="zkfFHV4jXpPFQw0GAbJ--0" vertex="1">
          <mxGeometry y="104" width="250" height="26" as="geometry" />
        </mxCell>
        <mxCell id="CDM7iMGNca0mMvF4ytL8-2" value="private boolean esVertical" style="text;align=left;verticalAlign=top;spacingLeft=4;spacingRight=4;overflow=hidden;rotatable=0;points=[[0,0.5],[1,0.5]];portConstraint=eastwest;rounded=0;shadow=0;html=0;" parent="zkfFHV4jXpPFQw0GAbJ--0" vertex="1">
          <mxGeometry y="130" width="250" height="26" as="geometry" />
        </mxCell>
        <mxCell id="zkfFHV4jXpPFQw0GAbJ--4" value="" style="line;html=1;strokeWidth=1;align=left;verticalAlign=middle;spacingTop=-1;spacingLeft=3;spacingRight=3;rotatable=0;labelPosition=right;points=[];portConstraint=eastwest;" parent="zkfFHV4jXpPFQw0GAbJ--0" vertex="1">
          <mxGeometry y="156" width="250" height="14" as="geometry" />
        </mxCell>
        <mxCell id="zkfFHV4jXpPFQw0GAbJ--5" value="getX() : int" style="text;align=left;verticalAlign=top;spacingLeft=4;spacingRight=4;overflow=hidden;rotatable=0;points=[[0,0.5],[1,0.5]];portConstraint=eastwest;" parent="zkfFHV4jXpPFQw0GAbJ--0" vertex="1">
          <mxGeometry y="170" width="250" height="28" as="geometry" />
        </mxCell>
        <mxCell id="CDM7iMGNca0mMvF4ytL8-3" value="getY() : int" style="text;align=left;verticalAlign=top;spacingLeft=4;spacingRight=4;overflow=hidden;rotatable=0;points=[[0,0.5],[1,0.5]];portConstraint=eastwest;" parent="zkfFHV4jXpPFQw0GAbJ--0" vertex="1">
          <mxGeometry y="198" width="250" height="28" as="geometry" />
        </mxCell>
        <mxCell id="CDM7iMGNca0mMvF4ytL8-4" value="getLongitud() : int" style="text;align=left;verticalAlign=top;spacingLeft=4;spacingRight=4;overflow=hidden;rotatable=0;points=[[0,0.5],[1,0.5]];portConstraint=eastwest;" parent="zkfFHV4jXpPFQw0GAbJ--0" vertex="1">
          <mxGeometry y="226" width="250" height="28" as="geometry" />
        </mxCell>
        <mxCell id="CDM7iMGNca0mMvF4ytL8-5" value="getVertical() : boolean" style="text;align=left;verticalAlign=top;spacingLeft=4;spacingRight=4;overflow=hidden;rotatable=0;points=[[0,0.5],[1,0.5]];portConstraint=eastwest;" parent="zkfFHV4jXpPFQw0GAbJ--0" vertex="1">
          <mxGeometry y="254" width="250" height="28" as="geometry" />
        </mxCell>
        <mxCell id="CDM7iMGNca0mMvF4ytL8-6" value="getPiezasRestantes() : int" style="text;align=left;verticalAlign=top;spacingLeft=4;spacingRight=4;overflow=hidden;rotatable=0;points=[[0,0.5],[1,0.5]];portConstraint=eastwest;" parent="zkfFHV4jXpPFQw0GAbJ--0" vertex="1">
          <mxGeometry y="282" width="250" height="28" as="geometry" />
        </mxCell>
        <mxCell id="CDM7iMGNca0mMvF4ytL8-7" value="getNombre() : String" style="text;align=left;verticalAlign=top;spacingLeft=4;spacingRight=4;overflow=hidden;rotatable=0;points=[[0,0.5],[1,0.5]];portConstraint=eastwest;" parent="zkfFHV4jXpPFQw0GAbJ--0" vertex="1">
          <mxGeometry y="310" width="250" height="28" as="geometry" />
        </mxCell>
        <mxCell id="CDM7iMGNca0mMvF4ytL8-8" value="setPosicion(int, int boolean)" style="text;align=left;verticalAlign=top;spacingLeft=4;spacingRight=4;overflow=hidden;rotatable=0;points=[[0,0.5],[1,0.5]];portConstraint=eastwest;" parent="zkfFHV4jXpPFQw0GAbJ--0" vertex="1">
          <mxGeometry y="338" width="250" height="28" as="geometry" />
        </mxCell>
        <mxCell id="CDM7iMGNca0mMvF4ytL8-10" value="estaHundido() : boolean" style="text;align=left;verticalAlign=top;spacingLeft=4;spacingRight=4;overflow=hidden;rotatable=0;points=[[0,0.5],[1,0.5]];portConstraint=eastwest;" parent="zkfFHV4jXpPFQw0GAbJ--0" vertex="1">
          <mxGeometry y="366" width="250" height="28" as="geometry" />
        </mxCell>
        <mxCell id="CDM7iMGNca0mMvF4ytL8-11" value="impactar()" style="text;align=left;verticalAlign=top;spacingLeft=4;spacingRight=4;overflow=hidden;rotatable=0;points=[[0,0.5],[1,0.5]];portConstraint=eastwest;" parent="zkfFHV4jXpPFQw0GAbJ--0" vertex="1">
          <mxGeometry y="394" width="250" height="28" as="geometry" />
        </mxCell>
        <mxCell id="CDM7iMGNca0mMvF4ytL8-12" value="Lancha" style="swimlane;fontStyle=0;align=center;verticalAlign=top;childLayout=stackLayout;horizontal=1;startSize=26;horizontalStack=0;resizeParent=1;resizeLast=0;collapsible=1;marginBottom=0;rounded=0;shadow=0;strokeWidth=1;" parent="WIyWlLk6GJQsqaUBKTNV-1" vertex="1">
          <mxGeometry x="590" y="-210" width="240" height="120" as="geometry">
            <mxRectangle x="550" y="140" width="160" height="26" as="alternateBounds" />
          </mxGeometry>
        </mxCell>
        <mxCell id="CDM7iMGNca0mMvF4ytL8-13" value="private String nombre" style="text;align=left;verticalAlign=top;spacingLeft=4;spacingRight=4;overflow=hidden;rotatable=0;points=[[0,0.5],[1,0.5]];portConstraint=eastwest;" parent="CDM7iMGNca0mMvF4ytL8-12" vertex="1">
          <mxGeometry y="26" width="240" height="26" as="geometry" />
        </mxCell>
        <mxCell id="CDM7iMGNca0mMvF4ytL8-14" value="private static final int TAMANIO_LANCHA" style="text;align=left;verticalAlign=top;spacingLeft=4;spacingRight=4;overflow=hidden;rotatable=0;points=[[0,0.5],[1,0.5]];portConstraint=eastwest;rounded=0;shadow=0;html=0;" parent="CDM7iMGNca0mMvF4ytL8-12" vertex="1">
          <mxGeometry y="52" width="240" height="26" as="geometry" />
        </mxCell>
        <mxCell id="CDM7iMGNca0mMvF4ytL8-18" value="" style="line;html=1;strokeWidth=1;align=left;verticalAlign=middle;spacingTop=-1;spacingLeft=3;spacingRight=3;rotatable=0;labelPosition=right;points=[];portConstraint=eastwest;" parent="CDM7iMGNca0mMvF4ytL8-12" vertex="1">
          <mxGeometry y="78" width="240" height="8" as="geometry" />
        </mxCell>
        <mxCell id="CDM7iMGNca0mMvF4ytL8-19" value="getNombre() : String" style="text;align=left;verticalAlign=top;spacingLeft=4;spacingRight=4;overflow=hidden;rotatable=0;points=[[0,0.5],[1,0.5]];portConstraint=eastwest;" parent="CDM7iMGNca0mMvF4ytL8-12" vertex="1">
          <mxGeometry y="86" width="240" height="26" as="geometry" />
        </mxCell>
        <mxCell id="CDM7iMGNca0mMvF4ytL8-22" value="extends" style="endArrow=block;endSize=10;endFill=0;shadow=0;strokeWidth=1;rounded=0;curved=0;edgeStyle=elbowEdgeStyle;elbow=vertical;entryX=0.5;entryY=0;entryDx=0;entryDy=0;exitX=0.5;exitY=1;exitDx=0;exitDy=0;" parent="WIyWlLk6GJQsqaUBKTNV-1" source="CDM7iMGNca0mMvF4ytL8-12" target="zkfFHV4jXpPFQw0GAbJ--0" edge="1">
          <mxGeometry width="160" relative="1" as="geometry">
            <mxPoint x="1070" y="495" as="sourcePoint" />
            <mxPoint x="1182" y="308" as="targetPoint" />
            <Array as="points">
              <mxPoint x="620" y="-80" />
            </Array>
          </mxGeometry>
        </mxCell>
        <mxCell id="CDM7iMGNca0mMvF4ytL8-23" value="Crucero" style="swimlane;fontStyle=0;align=center;verticalAlign=top;childLayout=stackLayout;horizontal=1;startSize=26;horizontalStack=0;resizeParent=1;resizeLast=0;collapsible=1;marginBottom=0;rounded=0;shadow=0;strokeWidth=1;" parent="WIyWlLk6GJQsqaUBKTNV-1" vertex="1">
          <mxGeometry x="300" y="-210" width="250" height="120" as="geometry">
            <mxRectangle x="550" y="140" width="160" height="26" as="alternateBounds" />
          </mxGeometry>
        </mxCell>
        <mxCell id="CDM7iMGNca0mMvF4ytL8-24" value="private String nombre" style="text;align=left;verticalAlign=top;spacingLeft=4;spacingRight=4;overflow=hidden;rotatable=0;points=[[0,0.5],[1,0.5]];portConstraint=eastwest;" parent="CDM7iMGNca0mMvF4ytL8-23" vertex="1">
          <mxGeometry y="26" width="250" height="26" as="geometry" />
        </mxCell>
        <mxCell id="CDM7iMGNca0mMvF4ytL8-25" value="private static final int TAMANIO_CRUCERO" style="text;align=left;verticalAlign=top;spacingLeft=4;spacingRight=4;overflow=hidden;rotatable=0;points=[[0,0.5],[1,0.5]];portConstraint=eastwest;rounded=0;shadow=0;html=0;" parent="CDM7iMGNca0mMvF4ytL8-23" vertex="1">
          <mxGeometry y="52" width="250" height="26" as="geometry" />
        </mxCell>
        <mxCell id="CDM7iMGNca0mMvF4ytL8-26" value="" style="line;html=1;strokeWidth=1;align=left;verticalAlign=middle;spacingTop=-1;spacingLeft=3;spacingRight=3;rotatable=0;labelPosition=right;points=[];portConstraint=eastwest;" parent="CDM7iMGNca0mMvF4ytL8-23" vertex="1">
          <mxGeometry y="78" width="250" height="8" as="geometry" />
        </mxCell>
        <mxCell id="CDM7iMGNca0mMvF4ytL8-27" value="getNombre() : String" style="text;align=left;verticalAlign=top;spacingLeft=4;spacingRight=4;overflow=hidden;rotatable=0;points=[[0,0.5],[1,0.5]];portConstraint=eastwest;" parent="CDM7iMGNca0mMvF4ytL8-23" vertex="1">
          <mxGeometry y="86" width="250" height="26" as="geometry" />
        </mxCell>
        <mxCell id="CDM7iMGNca0mMvF4ytL8-28" value="Submarino" style="swimlane;fontStyle=0;align=center;verticalAlign=top;childLayout=stackLayout;horizontal=1;startSize=26;horizontalStack=0;resizeParent=1;resizeLast=0;collapsible=1;marginBottom=0;rounded=0;shadow=0;strokeWidth=1;" parent="WIyWlLk6GJQsqaUBKTNV-1" vertex="1">
          <mxGeometry y="-210" width="256" height="120" as="geometry">
            <mxRectangle x="550" y="140" width="160" height="26" as="alternateBounds" />
          </mxGeometry>
        </mxCell>
        <mxCell id="CDM7iMGNca0mMvF4ytL8-29" value="private String nombre" style="text;align=left;verticalAlign=top;spacingLeft=4;spacingRight=4;overflow=hidden;rotatable=0;points=[[0,0.5],[1,0.5]];portConstraint=eastwest;" parent="CDM7iMGNca0mMvF4ytL8-28" vertex="1">
          <mxGeometry y="26" width="256" height="26" as="geometry" />
        </mxCell>
        <mxCell id="CDM7iMGNca0mMvF4ytL8-30" value="private static final int TAMANIO_SUBMARINO" style="text;align=left;verticalAlign=top;spacingLeft=4;spacingRight=4;overflow=hidden;rotatable=0;points=[[0,0.5],[1,0.5]];portConstraint=eastwest;rounded=0;shadow=0;html=0;" parent="CDM7iMGNca0mMvF4ytL8-28" vertex="1">
          <mxGeometry y="52" width="256" height="26" as="geometry" />
        </mxCell>
        <mxCell id="CDM7iMGNca0mMvF4ytL8-31" value="" style="line;html=1;strokeWidth=1;align=left;verticalAlign=middle;spacingTop=-1;spacingLeft=3;spacingRight=3;rotatable=0;labelPosition=right;points=[];portConstraint=eastwest;" parent="CDM7iMGNca0mMvF4ytL8-28" vertex="1">
          <mxGeometry y="78" width="256" height="8" as="geometry" />
        </mxCell>
        <mxCell id="CDM7iMGNca0mMvF4ytL8-32" value="getNombre() : String" style="text;align=left;verticalAlign=top;spacingLeft=4;spacingRight=4;overflow=hidden;rotatable=0;points=[[0,0.5],[1,0.5]];portConstraint=eastwest;" parent="CDM7iMGNca0mMvF4ytL8-28" vertex="1">
          <mxGeometry y="86" width="256" height="26" as="geometry" />
        </mxCell>
        <mxCell id="CDM7iMGNca0mMvF4ytL8-33" value="Buque" style="swimlane;fontStyle=0;align=center;verticalAlign=top;childLayout=stackLayout;horizontal=1;startSize=26;horizontalStack=0;resizeParent=1;resizeLast=0;collapsible=1;marginBottom=0;rounded=0;shadow=0;strokeWidth=1;" parent="WIyWlLk6GJQsqaUBKTNV-1" vertex="1">
          <mxGeometry x="40" y="30" width="240" height="120" as="geometry">
            <mxRectangle x="550" y="140" width="160" height="26" as="alternateBounds" />
          </mxGeometry>
        </mxCell>
        <mxCell id="CDM7iMGNca0mMvF4ytL8-34" value="private String nombre" style="text;align=left;verticalAlign=top;spacingLeft=4;spacingRight=4;overflow=hidden;rotatable=0;points=[[0,0.5],[1,0.5]];portConstraint=eastwest;" parent="CDM7iMGNca0mMvF4ytL8-33" vertex="1">
          <mxGeometry y="26" width="240" height="26" as="geometry" />
        </mxCell>
        <mxCell id="CDM7iMGNca0mMvF4ytL8-35" value="private static final int TAMANIO_BUQUE" style="text;align=left;verticalAlign=top;spacingLeft=4;spacingRight=4;overflow=hidden;rotatable=0;points=[[0,0.5],[1,0.5]];portConstraint=eastwest;rounded=0;shadow=0;html=0;" parent="CDM7iMGNca0mMvF4ytL8-33" vertex="1">
          <mxGeometry y="52" width="240" height="26" as="geometry" />
        </mxCell>
        <mxCell id="CDM7iMGNca0mMvF4ytL8-36" value="" style="line;html=1;strokeWidth=1;align=left;verticalAlign=middle;spacingTop=-1;spacingLeft=3;spacingRight=3;rotatable=0;labelPosition=right;points=[];portConstraint=eastwest;" parent="CDM7iMGNca0mMvF4ytL8-33" vertex="1">
          <mxGeometry y="78" width="240" height="8" as="geometry" />
        </mxCell>
        <mxCell id="CDM7iMGNca0mMvF4ytL8-37" value="getNombre() : String" style="text;align=left;verticalAlign=top;spacingLeft=4;spacingRight=4;overflow=hidden;rotatable=0;points=[[0,0.5],[1,0.5]];portConstraint=eastwest;" parent="CDM7iMGNca0mMvF4ytL8-33" vertex="1">
          <mxGeometry y="86" width="240" height="26" as="geometry" />
        </mxCell>
        <mxCell id="CDM7iMGNca0mMvF4ytL8-38" value="Portaaviones" style="swimlane;fontStyle=0;align=center;verticalAlign=top;childLayout=stackLayout;horizontal=1;startSize=26;horizontalStack=0;resizeParent=1;resizeLast=0;collapsible=1;marginBottom=0;rounded=0;shadow=0;strokeWidth=1;" parent="WIyWlLk6GJQsqaUBKTNV-1" vertex="1">
          <mxGeometry x="20" y="200" width="280" height="120" as="geometry">
            <mxRectangle x="550" y="140" width="160" height="26" as="alternateBounds" />
          </mxGeometry>
        </mxCell>
        <mxCell id="CDM7iMGNca0mMvF4ytL8-39" value="private String nombre" style="text;align=left;verticalAlign=top;spacingLeft=4;spacingRight=4;overflow=hidden;rotatable=0;points=[[0,0.5],[1,0.5]];portConstraint=eastwest;" parent="CDM7iMGNca0mMvF4ytL8-38" vertex="1">
          <mxGeometry y="26" width="280" height="26" as="geometry" />
        </mxCell>
        <mxCell id="CDM7iMGNca0mMvF4ytL8-40" value="private static final int TAMANIO_PORTAAVIONES" style="text;align=left;verticalAlign=top;spacingLeft=4;spacingRight=4;overflow=hidden;rotatable=0;points=[[0,0.5],[1,0.5]];portConstraint=eastwest;rounded=0;shadow=0;html=0;" parent="CDM7iMGNca0mMvF4ytL8-38" vertex="1">
          <mxGeometry y="52" width="280" height="26" as="geometry" />
        </mxCell>
        <mxCell id="CDM7iMGNca0mMvF4ytL8-41" value="" style="line;html=1;strokeWidth=1;align=left;verticalAlign=middle;spacingTop=-1;spacingLeft=3;spacingRight=3;rotatable=0;labelPosition=right;points=[];portConstraint=eastwest;" parent="CDM7iMGNca0mMvF4ytL8-38" vertex="1">
          <mxGeometry y="78" width="280" height="8" as="geometry" />
        </mxCell>
        <mxCell id="CDM7iMGNca0mMvF4ytL8-42" value="getNombre() : String" style="text;align=left;verticalAlign=top;spacingLeft=4;spacingRight=4;overflow=hidden;rotatable=0;points=[[0,0.5],[1,0.5]];portConstraint=eastwest;" parent="CDM7iMGNca0mMvF4ytL8-38" vertex="1">
          <mxGeometry y="86" width="280" height="26" as="geometry" />
        </mxCell>
        <mxCell id="CDM7iMGNca0mMvF4ytL8-43" value="extends" style="endArrow=block;endSize=10;endFill=0;shadow=0;strokeWidth=1;rounded=0;curved=0;edgeStyle=elbowEdgeStyle;elbow=vertical;entryX=0.25;entryY=0;entryDx=0;entryDy=0;exitX=0.5;exitY=1;exitDx=0;exitDy=0;" parent="WIyWlLk6GJQsqaUBKTNV-1" source="CDM7iMGNca0mMvF4ytL8-23" target="zkfFHV4jXpPFQw0GAbJ--0" edge="1">
          <mxGeometry width="160" relative="1" as="geometry">
            <mxPoint x="710" y="-90" as="sourcePoint" />
            <mxPoint x="545" y="20" as="targetPoint" />
            <Array as="points">
              <mxPoint x="630" y="-70" />
            </Array>
          </mxGeometry>
        </mxCell>
        <mxCell id="CDM7iMGNca0mMvF4ytL8-44" value="extends" style="endArrow=block;endSize=10;endFill=0;shadow=0;strokeWidth=1;rounded=0;curved=0;edgeStyle=elbowEdgeStyle;elbow=vertical;entryX=0;entryY=0;entryDx=0;entryDy=0;exitX=0.75;exitY=1;exitDx=0;exitDy=0;" parent="WIyWlLk6GJQsqaUBKTNV-1" source="CDM7iMGNca0mMvF4ytL8-28" target="zkfFHV4jXpPFQw0GAbJ--0" edge="1">
          <mxGeometry width="160" relative="1" as="geometry">
            <mxPoint x="720" y="-80" as="sourcePoint" />
            <mxPoint x="555" y="30" as="targetPoint" />
            <Array as="points">
              <mxPoint x="300" y="-70" />
            </Array>
          </mxGeometry>
        </mxCell>
        <mxCell id="CDM7iMGNca0mMvF4ytL8-45" value="extends" style="endArrow=block;endSize=10;endFill=0;shadow=0;strokeWidth=1;rounded=0;curved=0;edgeStyle=elbowEdgeStyle;elbow=vertical;entryX=0;entryY=0.5;entryDx=0;entryDy=0;exitX=1;exitY=0.5;exitDx=0;exitDy=0;" parent="WIyWlLk6GJQsqaUBKTNV-1" source="CDM7iMGNca0mMvF4ytL8-35" target="zkfFHV4jXpPFQw0GAbJ--2" edge="1">
          <mxGeometry width="160" relative="1" as="geometry">
            <mxPoint x="190" y="70" as="sourcePoint" />
            <mxPoint x="390" y="114" as="targetPoint" />
            <Array as="points">
              <mxPoint x="220" y="75" />
            </Array>
          </mxGeometry>
        </mxCell>
        <mxCell id="CDM7iMGNca0mMvF4ytL8-46" value="extends" style="endArrow=block;endSize=10;endFill=0;shadow=0;strokeWidth=1;rounded=0;curved=0;edgeStyle=elbowEdgeStyle;elbow=vertical;entryX=0;entryY=0.5;entryDx=0;entryDy=0;exitX=1;exitY=0.5;exitDx=0;exitDy=0;" parent="WIyWlLk6GJQsqaUBKTNV-1" source="CDM7iMGNca0mMvF4ytL8-39" edge="1">
          <mxGeometry width="160" relative="1" as="geometry">
            <mxPoint x="260" y="270" as="sourcePoint" />
            <mxPoint x="410" y="250" as="targetPoint" />
            <Array as="points">
              <mxPoint x="220" y="250" />
            </Array>
          </mxGeometry>
        </mxCell>
        <mxCell id="CDM7iMGNca0mMvF4ytL8-83" style="edgeStyle=orthogonalEdgeStyle;rounded=0;orthogonalLoop=1;jettySize=auto;html=1;exitX=0.25;exitY=0;exitDx=0;exitDy=0;entryX=0.75;entryY=1;entryDx=0;entryDy=0;" parent="WIyWlLk6GJQsqaUBKTNV-1" source="CDM7iMGNca0mMvF4ytL8-47" target="CDM7iMGNca0mMvF4ytL8-56" edge="1">
          <mxGeometry relative="1" as="geometry" />
        </mxCell>
        <mxCell id="CDM7iMGNca0mMvF4ytL8-47" value="Tablero" style="swimlane;fontStyle=0;align=center;verticalAlign=top;childLayout=stackLayout;horizontal=1;startSize=26;horizontalStack=0;resizeParent=1;resizeLast=0;collapsible=1;marginBottom=0;rounded=0;shadow=0;strokeWidth=1;" parent="WIyWlLk6GJQsqaUBKTNV-1" vertex="1">
          <mxGeometry x="400" y="520" width="240" height="330" as="geometry">
            <mxRectangle x="550" y="140" width="160" height="26" as="alternateBounds" />
          </mxGeometry>
        </mxCell>
        <mxCell id="CDM7iMGNca0mMvF4ytL8-48" value="private ModeloBarco[][] tablero" style="text;align=left;verticalAlign=top;spacingLeft=4;spacingRight=4;overflow=hidden;rotatable=0;points=[[0,0.5],[1,0.5]];portConstraint=eastwest;" parent="CDM7iMGNca0mMvF4ytL8-47" vertex="1">
          <mxGeometry y="26" width="240" height="26" as="geometry" />
        </mxCell>
        <mxCell id="CDM7iMGNca0mMvF4ytL8-49" value="private BarcoRoto piezaRota" style="text;align=left;verticalAlign=top;spacingLeft=4;spacingRight=4;overflow=hidden;rotatable=0;points=[[0,0.5],[1,0.5]];portConstraint=eastwest;rounded=0;shadow=0;html=0;" parent="CDM7iMGNca0mMvF4ytL8-47" vertex="1">
          <mxGeometry y="52" width="240" height="26" as="geometry" />
        </mxCell>
        <mxCell id="CDM7iMGNca0mMvF4ytL8-50" value="private ArrayList &lt;Observador&gt; observador" style="text;align=left;verticalAlign=top;spacingLeft=4;spacingRight=4;overflow=hidden;rotatable=0;points=[[0,0.5],[1,0.5]];portConstraint=eastwest;rounded=0;shadow=0;html=0;" parent="CDM7iMGNca0mMvF4ytL8-47" vertex="1">
          <mxGeometry y="78" width="240" height="26" as="geometry" />
        </mxCell>
        <mxCell id="CDM7iMGNca0mMvF4ytL8-53" value="" style="line;html=1;strokeWidth=1;align=left;verticalAlign=middle;spacingTop=-1;spacingLeft=3;spacingRight=3;rotatable=0;labelPosition=right;points=[];portConstraint=eastwest;" parent="CDM7iMGNca0mMvF4ytL8-47" vertex="1">
          <mxGeometry y="104" width="240" height="8" as="geometry" />
        </mxCell>
        <mxCell id="CDM7iMGNca0mMvF4ytL8-54" value="notificar()" style="text;align=left;verticalAlign=top;spacingLeft=4;spacingRight=4;overflow=hidden;rotatable=0;points=[[0,0.5],[1,0.5]];portConstraint=eastwest;" parent="CDM7iMGNca0mMvF4ytL8-47" vertex="1">
          <mxGeometry y="112" width="240" height="26" as="geometry" />
        </mxCell>
        <mxCell id="CDM7iMGNca0mMvF4ytL8-55" value="addObservador(Observador)" style="text;align=left;verticalAlign=top;spacingLeft=4;spacingRight=4;overflow=hidden;rotatable=0;points=[[0,0.5],[1,0.5]];portConstraint=eastwest;" parent="CDM7iMGNca0mMvF4ytL8-47" vertex="1">
          <mxGeometry y="138" width="240" height="26" as="geometry" />
        </mxCell>
        <mxCell id="CDM7iMGNca0mMvF4ytL8-62" value="verificarBarco(ModeloBarco) : boolean" style="text;align=left;verticalAlign=top;spacingLeft=4;spacingRight=4;overflow=hidden;rotatable=0;points=[[0,0.5],[1,0.5]];portConstraint=eastwest;" parent="CDM7iMGNca0mMvF4ytL8-47" vertex="1">
          <mxGeometry y="164" width="240" height="26" as="geometry" />
        </mxCell>
        <mxCell id="CDM7iMGNca0mMvF4ytL8-63" value="colocarBarco(ModeloBarco) : boolean" style="text;align=left;verticalAlign=top;spacingLeft=4;spacingRight=4;overflow=hidden;rotatable=0;points=[[0,0.5],[1,0.5]];portConstraint=eastwest;" parent="CDM7iMGNca0mMvF4ytL8-47" vertex="1">
          <mxGeometry y="190" width="240" height="26" as="geometry" />
        </mxCell>
        <mxCell id="CDM7iMGNca0mMvF4ytL8-65" value="verificarDisparo(int, int) : ResultadoDisparo" style="text;align=left;verticalAlign=top;spacingLeft=4;spacingRight=4;overflow=hidden;rotatable=0;points=[[0,0.5],[1,0.5]];portConstraint=eastwest;" parent="CDM7iMGNca0mMvF4ytL8-47" vertex="1">
          <mxGeometry y="216" width="240" height="26" as="geometry" />
        </mxCell>
        <mxCell id="CDM7iMGNca0mMvF4ytL8-66" value="disparo(int, int) : ResultadoDisparo" style="text;align=left;verticalAlign=top;spacingLeft=4;spacingRight=4;overflow=hidden;rotatable=0;points=[[0,0.5],[1,0.5]];portConstraint=eastwest;" parent="CDM7iMGNca0mMvF4ytL8-47" vertex="1">
          <mxGeometry y="242" width="240" height="26" as="geometry" />
        </mxCell>
        <mxCell id="CDM7iMGNca0mMvF4ytL8-67" value="reiniciarTablero()" style="text;align=left;verticalAlign=top;spacingLeft=4;spacingRight=4;overflow=hidden;rotatable=0;points=[[0,0.5],[1,0.5]];portConstraint=eastwest;" parent="CDM7iMGNca0mMvF4ytL8-47" vertex="1">
          <mxGeometry y="268" width="240" height="26" as="geometry" />
        </mxCell>
        <mxCell id="CDM7iMGNca0mMvF4ytL8-68" value="getTablero() : ModeloBarco[][]" style="text;align=left;verticalAlign=top;spacingLeft=4;spacingRight=4;overflow=hidden;rotatable=0;points=[[0,0.5],[1,0.5]];portConstraint=eastwest;" parent="CDM7iMGNca0mMvF4ytL8-47" vertex="1">
          <mxGeometry y="294" width="240" height="26" as="geometry" />
        </mxCell>
        <mxCell id="CDM7iMGNca0mMvF4ytL8-56" value="BarcoRoto" style="swimlane;fontStyle=0;align=center;verticalAlign=top;childLayout=stackLayout;horizontal=1;startSize=26;horizontalStack=0;resizeParent=1;resizeLast=0;collapsible=1;marginBottom=0;rounded=0;shadow=0;strokeWidth=1;" parent="WIyWlLk6GJQsqaUBKTNV-1" vertex="1">
          <mxGeometry x="20" y="350" width="280" height="120" as="geometry">
            <mxRectangle x="550" y="140" width="160" height="26" as="alternateBounds" />
          </mxGeometry>
        </mxCell>
        <mxCell id="CDM7iMGNca0mMvF4ytL8-57" value="private String nombre" style="text;align=left;verticalAlign=top;spacingLeft=4;spacingRight=4;overflow=hidden;rotatable=0;points=[[0,0.5],[1,0.5]];portConstraint=eastwest;" parent="CDM7iMGNca0mMvF4ytL8-56" vertex="1">
          <mxGeometry y="26" width="280" height="26" as="geometry" />
        </mxCell>
        <mxCell id="CDM7iMGNca0mMvF4ytL8-58" value="private static final int TAMANIO_PIEZA" style="text;align=left;verticalAlign=top;spacingLeft=4;spacingRight=4;overflow=hidden;rotatable=0;points=[[0,0.5],[1,0.5]];portConstraint=eastwest;rounded=0;shadow=0;html=0;" parent="CDM7iMGNca0mMvF4ytL8-56" vertex="1">
          <mxGeometry y="52" width="280" height="26" as="geometry" />
        </mxCell>
        <mxCell id="CDM7iMGNca0mMvF4ytL8-59" value="" style="line;html=1;strokeWidth=1;align=left;verticalAlign=middle;spacingTop=-1;spacingLeft=3;spacingRight=3;rotatable=0;labelPosition=right;points=[];portConstraint=eastwest;" parent="CDM7iMGNca0mMvF4ytL8-56" vertex="1">
          <mxGeometry y="78" width="280" height="8" as="geometry" />
        </mxCell>
        <mxCell id="CDM7iMGNca0mMvF4ytL8-60" value="getNombre() : String" style="text;align=left;verticalAlign=top;spacingLeft=4;spacingRight=4;overflow=hidden;rotatable=0;points=[[0,0.5],[1,0.5]];portConstraint=eastwest;" parent="CDM7iMGNca0mMvF4ytL8-56" vertex="1">
          <mxGeometry y="86" width="280" height="26" as="geometry" />
        </mxCell>
        <mxCell id="CDM7iMGNca0mMvF4ytL8-61" value="extends" style="endArrow=block;endSize=10;endFill=0;shadow=0;strokeWidth=1;rounded=0;curved=0;edgeStyle=elbowEdgeStyle;elbow=vertical;entryX=0;entryY=0.5;entryDx=0;entryDy=0;exitX=1;exitY=0.5;exitDx=0;exitDy=0;" parent="WIyWlLk6GJQsqaUBKTNV-1" edge="1">
          <mxGeometry width="160" relative="1" as="geometry">
            <mxPoint x="300" y="380" as="sourcePoint" />
            <mxPoint x="410" y="391" as="targetPoint" />
            <Array as="points">
              <mxPoint x="220" y="391" />
            </Array>
          </mxGeometry>
        </mxCell>
        <mxCell id="CDM7iMGNca0mMvF4ytL8-69" value="ENUM ResultadoDisparo" style="swimlane;fontStyle=0;align=center;verticalAlign=top;childLayout=stackLayout;horizontal=1;startSize=26;horizontalStack=0;resizeParent=1;resizeLast=0;collapsible=1;marginBottom=0;rounded=0;shadow=0;strokeWidth=1;" parent="WIyWlLk6GJQsqaUBKTNV-1" vertex="1">
          <mxGeometry x="80" y="550" width="160" height="130" as="geometry">
            <mxRectangle x="340" y="380" width="170" height="26" as="alternateBounds" />
          </mxGeometry>
        </mxCell>
        <mxCell id="CDM7iMGNca0mMvF4ytL8-70" value="AGUA" style="text;align=left;verticalAlign=top;spacingLeft=4;spacingRight=4;overflow=hidden;rotatable=0;points=[[0,0.5],[1,0.5]];portConstraint=eastwest;" parent="CDM7iMGNca0mMvF4ytL8-69" vertex="1">
          <mxGeometry y="26" width="160" height="26" as="geometry" />
        </mxCell>
        <mxCell id="CDM7iMGNca0mMvF4ytL8-72" value="TOCADO" style="text;align=left;verticalAlign=top;spacingLeft=4;spacingRight=4;overflow=hidden;rotatable=0;points=[[0,0.5],[1,0.5]];portConstraint=eastwest;" parent="CDM7iMGNca0mMvF4ytL8-69" vertex="1">
          <mxGeometry y="52" width="160" height="26" as="geometry" />
        </mxCell>
        <mxCell id="CDM7iMGNca0mMvF4ytL8-73" value="PIEZA_ROTA" style="text;align=left;verticalAlign=top;spacingLeft=4;spacingRight=4;overflow=hidden;rotatable=0;points=[[0,0.5],[1,0.5]];portConstraint=eastwest;" parent="CDM7iMGNca0mMvF4ytL8-69" vertex="1">
          <mxGeometry y="78" width="160" height="26" as="geometry" />
        </mxCell>
        <mxCell id="CDM7iMGNca0mMvF4ytL8-74" value="HUNDIDO" style="text;align=left;verticalAlign=top;spacingLeft=4;spacingRight=4;overflow=hidden;rotatable=0;points=[[0,0.5],[1,0.5]];portConstraint=eastwest;" parent="CDM7iMGNca0mMvF4ytL8-69" vertex="1">
          <mxGeometry y="104" width="160" height="26" as="geometry" />
        </mxCell>
        <mxCell id="CDM7iMGNca0mMvF4ytL8-76" style="edgeStyle=orthogonalEdgeStyle;rounded=0;orthogonalLoop=1;jettySize=auto;html=1;exitX=0;exitY=0.5;exitDx=0;exitDy=0;entryX=1;entryY=0.5;entryDx=0;entryDy=0;" parent="WIyWlLk6GJQsqaUBKTNV-1" source="CDM7iMGNca0mMvF4ytL8-49" target="CDM7iMGNca0mMvF4ytL8-70" edge="1">
          <mxGeometry relative="1" as="geometry" />
        </mxCell>
        <mxCell id="CDM7iMGNca0mMvF4ytL8-77" value="Observable" style="swimlane;fontStyle=0;align=center;verticalAlign=top;childLayout=stackLayout;horizontal=1;startSize=26;horizontalStack=0;resizeParent=1;resizeLast=0;collapsible=1;marginBottom=0;rounded=0;shadow=0;strokeWidth=1;" parent="WIyWlLk6GJQsqaUBKTNV-1" vertex="1">
          <mxGeometry x="750" y="814" width="160" height="70" as="geometry">
            <mxRectangle x="340" y="380" width="170" height="26" as="alternateBounds" />
          </mxGeometry>
        </mxCell>
        <mxCell id="CDM7iMGNca0mMvF4ytL8-78" value="notificar()" style="text;align=left;verticalAlign=top;spacingLeft=4;spacingRight=4;overflow=hidden;rotatable=0;points=[[0,0.5],[1,0.5]];portConstraint=eastwest;" parent="CDM7iMGNca0mMvF4ytL8-77" vertex="1">
          <mxGeometry y="26" width="160" height="26" as="geometry" />
        </mxCell>
        <mxCell id="CDM7iMGNca0mMvF4ytL8-82" value="implements" style="endArrow=block;endSize=10;endFill=0;shadow=0;strokeWidth=1;rounded=0;curved=0;edgeStyle=elbowEdgeStyle;elbow=vertical;entryX=0.5;entryY=0;entryDx=0;entryDy=0;exitX=1;exitY=0.5;exitDx=0;exitDy=0;" parent="WIyWlLk6GJQsqaUBKTNV-1" source="CDM7iMGNca0mMvF4ytL8-67" target="CDM7iMGNca0mMvF4ytL8-77" edge="1">
          <mxGeometry width="160" relative="1" as="geometry">
            <mxPoint x="694" y="650" as="sourcePoint" />
            <mxPoint x="804" y="661" as="targetPoint" />
            <Array as="points">
              <mxPoint x="760" y="790" />
            </Array>
          </mxGeometry>
        </mxCell>
        <mxCell id="CDM7iMGNca0mMvF4ytL8-90" style="edgeStyle=orthogonalEdgeStyle;rounded=0;orthogonalLoop=1;jettySize=auto;html=1;exitX=0.25;exitY=0;exitDx=0;exitDy=0;entryX=1;entryY=1;entryDx=0;entryDy=0;" parent="WIyWlLk6GJQsqaUBKTNV-1" source="CDM7iMGNca0mMvF4ytL8-84" target="zkfFHV4jXpPFQw0GAbJ--0" edge="1">
          <mxGeometry relative="1" as="geometry">
            <mxPoint x="1160" y="600" as="sourcePoint" />
            <mxPoint x="740" y="440" as="targetPoint" />
            <Array as="points">
              <mxPoint x="1050" y="590" />
              <mxPoint x="1050" y="440" />
            </Array>
          </mxGeometry>
        </mxCell>
        <mxCell id="CDM7iMGNca0mMvF4ytL8-84" value="Observador" style="swimlane;fontStyle=0;align=center;verticalAlign=top;childLayout=stackLayout;horizontal=1;startSize=26;horizontalStack=0;resizeParent=1;resizeLast=0;collapsible=1;marginBottom=0;rounded=0;shadow=0;strokeWidth=1;" parent="WIyWlLk6GJQsqaUBKTNV-1" vertex="1">
          <mxGeometry x="1040" y="720" width="360" height="130" as="geometry">
            <mxRectangle x="340" y="380" width="170" height="26" as="alternateBounds" />
          </mxGeometry>
        </mxCell>
        <mxCell id="CDM7iMGNca0mMvF4ytL8-85" value="actualizarTablero(ModeloBarco[][])" style="text;align=left;verticalAlign=top;spacingLeft=4;spacingRight=4;overflow=hidden;rotatable=0;points=[[0,0.5],[1,0.5]];portConstraint=eastwest;" parent="CDM7iMGNca0mMvF4ytL8-84" vertex="1">
          <mxGeometry y="26" width="360" height="26" as="geometry" />
        </mxCell>
        <mxCell id="CDM7iMGNca0mMvF4ytL8-86" value="actualizarDisparo(ResultadoDisparo, int, int, String [][])" style="text;align=left;verticalAlign=top;spacingLeft=4;spacingRight=4;overflow=hidden;rotatable=0;points=[[0,0.5],[1,0.5]];portConstraint=eastwest;" parent="CDM7iMGNca0mMvF4ytL8-84" vertex="1">
          <mxGeometry y="52" width="360" height="26" as="geometry" />
        </mxCell>
        <mxCell id="CDM7iMGNca0mMvF4ytL8-87" value="actualizarDisparoRecibido(ResultadoDisparo, int, int, String [][])" style="text;align=left;verticalAlign=top;spacingLeft=4;spacingRight=4;overflow=hidden;rotatable=0;points=[[0,0.5],[1,0.5]];portConstraint=eastwest;" parent="CDM7iMGNca0mMvF4ytL8-84" vertex="1">
          <mxGeometry y="78" width="360" height="26" as="geometry" />
        </mxCell>
        <mxCell id="CDM7iMGNca0mMvF4ytL8-89" style="edgeStyle=orthogonalEdgeStyle;rounded=0;orthogonalLoop=1;jettySize=auto;html=1;exitX=1;exitY=0.5;exitDx=0;exitDy=0;entryX=0;entryY=0.5;entryDx=0;entryDy=0;" parent="WIyWlLk6GJQsqaUBKTNV-1" source="CDM7iMGNca0mMvF4ytL8-49" target="CDM7iMGNca0mMvF4ytL8-85" edge="1">
          <mxGeometry relative="1" as="geometry" />
        </mxCell>
        <mxCell id="CDM7iMGNca0mMvF4ytL8-91" style="edgeStyle=orthogonalEdgeStyle;rounded=0;orthogonalLoop=1;jettySize=auto;html=1;exitX=0;exitY=0.5;exitDx=0;exitDy=0;entryX=0.594;entryY=1.038;entryDx=0;entryDy=0;entryPerimeter=0;" parent="WIyWlLk6GJQsqaUBKTNV-1" source="CDM7iMGNca0mMvF4ytL8-87" target="CDM7iMGNca0mMvF4ytL8-74" edge="1">
          <mxGeometry relative="1" as="geometry">
            <Array as="points">
              <mxPoint x="1030" y="910" />
              <mxPoint x="175" y="910" />
            </Array>
          </mxGeometry>
        </mxCell>
        <mxCell id="CDM7iMGNca0mMvF4ytL8-92" value="Usuario" style="swimlane;fontStyle=2;align=center;verticalAlign=top;childLayout=stackLayout;horizontal=1;startSize=26;horizontalStack=0;resizeParent=1;resizeLast=0;collapsible=1;marginBottom=0;rounded=0;shadow=0;strokeWidth=1;" parent="WIyWlLk6GJQsqaUBKTNV-1" vertex="1">
          <mxGeometry x="-330" y="-10" width="290" height="936" as="geometry">
            <mxRectangle x="230" y="140" width="160" height="26" as="alternateBounds" />
          </mxGeometry>
        </mxCell>
        <mxCell id="CDM7iMGNca0mMvF4ytL8-93" value="private String nombre" style="text;align=left;verticalAlign=top;spacingLeft=4;spacingRight=4;overflow=hidden;rotatable=0;points=[[0,0.5],[1,0.5]];portConstraint=eastwest;" parent="CDM7iMGNca0mMvF4ytL8-92" vertex="1">
          <mxGeometry y="26" width="290" height="26" as="geometry" />
        </mxCell>
        <mxCell id="CDM7iMGNca0mMvF4ytL8-94" value="private int puntaje" style="text;align=left;verticalAlign=top;spacingLeft=4;spacingRight=4;overflow=hidden;rotatable=0;points=[[0,0.5],[1,0.5]];portConstraint=eastwest;rounded=0;shadow=0;html=0;" parent="CDM7iMGNca0mMvF4ytL8-92" vertex="1">
          <mxGeometry y="52" width="290" height="26" as="geometry" />
        </mxCell>
        <mxCell id="CDM7iMGNca0mMvF4ytL8-95" value="private int partidasGanadas" style="text;align=left;verticalAlign=top;spacingLeft=4;spacingRight=4;overflow=hidden;rotatable=0;points=[[0,0.5],[1,0.5]];portConstraint=eastwest;rounded=0;shadow=0;html=0;" parent="CDM7iMGNca0mMvF4ytL8-92" vertex="1">
          <mxGeometry y="78" width="290" height="26" as="geometry" />
        </mxCell>
        <mxCell id="CDM7iMGNca0mMvF4ytL8-96" value="private ModeloBarco[] barcos" style="text;align=left;verticalAlign=top;spacingLeft=4;spacingRight=4;overflow=hidden;rotatable=0;points=[[0,0.5],[1,0.5]];portConstraint=eastwest;rounded=0;shadow=0;html=0;" parent="CDM7iMGNca0mMvF4ytL8-92" vertex="1">
          <mxGeometry y="104" width="290" height="26" as="geometry" />
        </mxCell>
        <mxCell id="CDM7iMGNca0mMvF4ytL8-97" value="private int cantidadBarcos" style="text;align=left;verticalAlign=top;spacingLeft=4;spacingRight=4;overflow=hidden;rotatable=0;points=[[0,0.5],[1,0.5]];portConstraint=eastwest;rounded=0;shadow=0;html=0;" parent="CDM7iMGNca0mMvF4ytL8-92" vertex="1">
          <mxGeometry y="130" width="290" height="26" as="geometry" />
        </mxCell>
        <mxCell id="CDM7iMGNca0mMvF4ytL8-108" value="private Tablero tablero" style="text;align=left;verticalAlign=top;spacingLeft=4;spacingRight=4;overflow=hidden;rotatable=0;points=[[0,0.5],[1,0.5]];portConstraint=eastwest;rounded=0;shadow=0;html=0;" parent="CDM7iMGNca0mMvF4ytL8-92" vertex="1">
          <mxGeometry y="156" width="290" height="26" as="geometry" />
        </mxCell>
        <mxCell id="CDM7iMGNca0mMvF4ytL8-109" value="private String [][] tableroEnemigo" style="text;align=left;verticalAlign=top;spacingLeft=4;spacingRight=4;overflow=hidden;rotatable=0;points=[[0,0.5],[1,0.5]];portConstraint=eastwest;rounded=0;shadow=0;html=0;" parent="CDM7iMGNca0mMvF4ytL8-92" vertex="1">
          <mxGeometry y="182" width="290" height="26" as="geometry" />
        </mxCell>
        <mxCell id="CDM7iMGNca0mMvF4ytL8-110" value="private ResultadoDisparo ultimoDisparo" style="text;align=left;verticalAlign=top;spacingLeft=4;spacingRight=4;overflow=hidden;rotatable=0;points=[[0,0.5],[1,0.5]];portConstraint=eastwest;rounded=0;shadow=0;html=0;" parent="CDM7iMGNca0mMvF4ytL8-92" vertex="1">
          <mxGeometry y="208" width="290" height="26" as="geometry" />
        </mxCell>
        <mxCell id="CDM7iMGNca0mMvF4ytL8-111" value="private int xUltimo" style="text;align=left;verticalAlign=top;spacingLeft=4;spacingRight=4;overflow=hidden;rotatable=0;points=[[0,0.5],[1,0.5]];portConstraint=eastwest;rounded=0;shadow=0;html=0;" parent="CDM7iMGNca0mMvF4ytL8-92" vertex="1">
          <mxGeometry y="234" width="290" height="26" as="geometry" />
        </mxCell>
        <mxCell id="CDM7iMGNca0mMvF4ytL8-112" value="private int yUltimo" style="text;align=left;verticalAlign=top;spacingLeft=4;spacingRight=4;overflow=hidden;rotatable=0;points=[[0,0.5],[1,0.5]];portConstraint=eastwest;rounded=0;shadow=0;html=0;" parent="CDM7iMGNca0mMvF4ytL8-92" vertex="1">
          <mxGeometry y="260" width="290" height="26" as="geometry" />
        </mxCell>
        <mxCell id="CDM7iMGNca0mMvF4ytL8-98" value="" style="line;html=1;strokeWidth=1;align=left;verticalAlign=middle;spacingTop=-1;spacingLeft=3;spacingRight=3;rotatable=0;labelPosition=right;points=[];portConstraint=eastwest;" parent="CDM7iMGNca0mMvF4ytL8-92" vertex="1">
          <mxGeometry y="286" width="290" height="34" as="geometry" />
        </mxCell>
        <mxCell id="CDM7iMGNca0mMvF4ytL8-99" value="getNombre() : String" style="text;align=left;verticalAlign=top;spacingLeft=4;spacingRight=4;overflow=hidden;rotatable=0;points=[[0,0.5],[1,0.5]];portConstraint=eastwest;" parent="CDM7iMGNca0mMvF4ytL8-92" vertex="1">
          <mxGeometry y="320" width="290" height="28" as="geometry" />
        </mxCell>
        <mxCell id="CDM7iMGNca0mMvF4ytL8-100" value="getPuntaje() : int" style="text;align=left;verticalAlign=top;spacingLeft=4;spacingRight=4;overflow=hidden;rotatable=0;points=[[0,0.5],[1,0.5]];portConstraint=eastwest;" parent="CDM7iMGNca0mMvF4ytL8-92" vertex="1">
          <mxGeometry y="348" width="290" height="28" as="geometry" />
        </mxCell>
        <mxCell id="CDM7iMGNca0mMvF4ytL8-101" value="getPartidasGanadas() : int" style="text;align=left;verticalAlign=top;spacingLeft=4;spacingRight=4;overflow=hidden;rotatable=0;points=[[0,0.5],[1,0.5]];portConstraint=eastwest;" parent="CDM7iMGNca0mMvF4ytL8-92" vertex="1">
          <mxGeometry y="376" width="290" height="28" as="geometry" />
        </mxCell>
        <mxCell id="CDM7iMGNca0mMvF4ytL8-102" value="getCantidadBarcos() : int" style="text;align=left;verticalAlign=top;spacingLeft=4;spacingRight=4;overflow=hidden;rotatable=0;points=[[0,0.5],[1,0.5]];portConstraint=eastwest;" parent="CDM7iMGNca0mMvF4ytL8-92" vertex="1">
          <mxGeometry y="404" width="290" height="28" as="geometry" />
        </mxCell>
        <mxCell id="CDM7iMGNca0mMvF4ytL8-103" value="getBarcoIndice(int) : ModeloBarco" style="text;align=left;verticalAlign=top;spacingLeft=4;spacingRight=4;overflow=hidden;rotatable=0;points=[[0,0.5],[1,0.5]];portConstraint=eastwest;" parent="CDM7iMGNca0mMvF4ytL8-92" vertex="1">
          <mxGeometry y="432" width="290" height="28" as="geometry" />
        </mxCell>
        <mxCell id="CDM7iMGNca0mMvF4ytL8-104" value="getBarcos() : ModeloBarco[]" style="text;align=left;verticalAlign=top;spacingLeft=4;spacingRight=4;overflow=hidden;rotatable=0;points=[[0,0.5],[1,0.5]];portConstraint=eastwest;" parent="CDM7iMGNca0mMvF4ytL8-92" vertex="1">
          <mxGeometry y="460" width="290" height="28" as="geometry" />
        </mxCell>
        <mxCell id="CDM7iMGNca0mMvF4ytL8-150" style="edgeStyle=orthogonalEdgeStyle;rounded=0;orthogonalLoop=1;jettySize=auto;html=1;exitX=1;exitY=0.5;exitDx=0;exitDy=0;" parent="CDM7iMGNca0mMvF4ytL8-92" edge="1">
          <mxGeometry relative="1" as="geometry">
            <mxPoint x="840" y="447.99999999999955" as="targetPoint" />
            <Array as="points">
              <mxPoint x="290" y="498" />
              <mxPoint x="841" y="498" />
            </Array>
            <mxPoint x="290" y="510" as="sourcePoint" />
          </mxGeometry>
        </mxCell>
        <mxCell id="CDM7iMGNca0mMvF4ytL8-105" value="getTableroUsuario() : Tablero" style="text;align=left;verticalAlign=top;spacingLeft=4;spacingRight=4;overflow=hidden;rotatable=0;points=[[0,0.5],[1,0.5]];portConstraint=eastwest;" parent="CDM7iMGNca0mMvF4ytL8-92" vertex="1">
          <mxGeometry y="488" width="290" height="28" as="geometry" />
        </mxCell>
        <mxCell id="CDM7iMGNca0mMvF4ytL8-106" value="getUltimoDisparo() : ResultadoDisparo" style="text;align=left;verticalAlign=top;spacingLeft=4;spacingRight=4;overflow=hidden;rotatable=0;points=[[0,0.5],[1,0.5]];portConstraint=eastwest;" parent="CDM7iMGNca0mMvF4ytL8-92" vertex="1">
          <mxGeometry y="516" width="290" height="28" as="geometry" />
        </mxCell>
        <mxCell id="CDM7iMGNca0mMvF4ytL8-107" value="getTableroEnemigo() : String[][]" style="text;align=left;verticalAlign=top;spacingLeft=4;spacingRight=4;overflow=hidden;rotatable=0;points=[[0,0.5],[1,0.5]];portConstraint=eastwest;" parent="CDM7iMGNca0mMvF4ytL8-92" vertex="1">
          <mxGeometry y="544" width="290" height="28" as="geometry" />
        </mxCell>
        <mxCell id="CDM7iMGNca0mMvF4ytL8-113" value="getXUltimo() : int" style="text;align=left;verticalAlign=top;spacingLeft=4;spacingRight=4;overflow=hidden;rotatable=0;points=[[0,0.5],[1,0.5]];portConstraint=eastwest;" parent="CDM7iMGNca0mMvF4ytL8-92" vertex="1">
          <mxGeometry y="572" width="290" height="28" as="geometry" />
        </mxCell>
        <mxCell id="CDM7iMGNca0mMvF4ytL8-114" value="getYUltimo() : int" style="text;align=left;verticalAlign=top;spacingLeft=4;spacingRight=4;overflow=hidden;rotatable=0;points=[[0,0.5],[1,0.5]];portConstraint=eastwest;" parent="CDM7iMGNca0mMvF4ytL8-92" vertex="1">
          <mxGeometry y="600" width="290" height="28" as="geometry" />
        </mxCell>
        <mxCell id="CDM7iMGNca0mMvF4ytL8-115" value="setUltimoDisparo(ResultadoDisparo)" style="text;align=left;verticalAlign=top;spacingLeft=4;spacingRight=4;overflow=hidden;rotatable=0;points=[[0,0.5],[1,0.5]];portConstraint=eastwest;" parent="CDM7iMGNca0mMvF4ytL8-92" vertex="1">
          <mxGeometry y="628" width="290" height="28" as="geometry" />
        </mxCell>
        <mxCell id="CDM7iMGNca0mMvF4ytL8-116" value="setXUltimo(int)" style="text;align=left;verticalAlign=top;spacingLeft=4;spacingRight=4;overflow=hidden;rotatable=0;points=[[0,0.5],[1,0.5]];portConstraint=eastwest;" parent="CDM7iMGNca0mMvF4ytL8-92" vertex="1">
          <mxGeometry y="656" width="290" height="28" as="geometry" />
        </mxCell>
        <mxCell id="CDM7iMGNca0mMvF4ytL8-117" value="setYUltimo(int)" style="text;align=left;verticalAlign=top;spacingLeft=4;spacingRight=4;overflow=hidden;rotatable=0;points=[[0,0.5],[1,0.5]];portConstraint=eastwest;" parent="CDM7iMGNca0mMvF4ytL8-92" vertex="1">
          <mxGeometry y="684" width="290" height="28" as="geometry" />
        </mxCell>
        <mxCell id="CDM7iMGNca0mMvF4ytL8-118" value="cargarBarcos()" style="text;align=left;verticalAlign=top;spacingLeft=4;spacingRight=4;overflow=hidden;rotatable=0;points=[[0,0.5],[1,0.5]];portConstraint=eastwest;" parent="CDM7iMGNca0mMvF4ytL8-92" vertex="1">
          <mxGeometry y="712" width="290" height="28" as="geometry" />
        </mxCell>
        <mxCell id="CDM7iMGNca0mMvF4ytL8-120" value="barcoHundido()" style="text;align=left;verticalAlign=top;spacingLeft=4;spacingRight=4;overflow=hidden;rotatable=0;points=[[0,0.5],[1,0.5]];portConstraint=eastwest;" parent="CDM7iMGNca0mMvF4ytL8-92" vertex="1">
          <mxGeometry y="740" width="290" height="28" as="geometry" />
        </mxCell>
        <mxCell id="CDM7iMGNca0mMvF4ytL8-127" style="edgeStyle=orthogonalEdgeStyle;rounded=0;orthogonalLoop=1;jettySize=auto;html=1;exitX=1;exitY=0.5;exitDx=0;exitDy=0;" parent="CDM7iMGNca0mMvF4ytL8-92" edge="1">
          <mxGeometry relative="1" as="geometry">
            <mxPoint x="440" y="691" as="targetPoint" />
            <mxPoint x="290" y="793" as="sourcePoint" />
          </mxGeometry>
        </mxCell>
        <mxCell id="CDM7iMGNca0mMvF4ytL8-121" value="perdio() : boolean" style="text;align=left;verticalAlign=top;spacingLeft=4;spacingRight=4;overflow=hidden;rotatable=0;points=[[0,0.5],[1,0.5]];portConstraint=eastwest;" parent="CDM7iMGNca0mMvF4ytL8-92" vertex="1">
          <mxGeometry y="768" width="290" height="28" as="geometry" />
        </mxCell>
        <mxCell id="CDM7iMGNca0mMvF4ytL8-122" value="inicializarTableroEnemigo()" style="text;align=left;verticalAlign=top;spacingLeft=4;spacingRight=4;overflow=hidden;rotatable=0;points=[[0,0.5],[1,0.5]];portConstraint=eastwest;" parent="CDM7iMGNca0mMvF4ytL8-92" vertex="1">
          <mxGeometry y="796" width="290" height="28" as="geometry" />
        </mxCell>
        <mxCell id="CDM7iMGNca0mMvF4ytL8-123" value="reorganizarBarcos() : boolean" style="text;align=left;verticalAlign=top;spacingLeft=4;spacingRight=4;overflow=hidden;rotatable=0;points=[[0,0.5],[1,0.5]];portConstraint=eastwest;" parent="CDM7iMGNca0mMvF4ytL8-92" vertex="1">
          <mxGeometry y="824" width="290" height="28" as="geometry" />
        </mxCell>
        <mxCell id="CDM7iMGNca0mMvF4ytL8-124" value="cuantosBarcos() : int" style="text;align=left;verticalAlign=top;spacingLeft=4;spacingRight=4;overflow=hidden;rotatable=0;points=[[0,0.5],[1,0.5]];portConstraint=eastwest;" parent="CDM7iMGNca0mMvF4ytL8-92" vertex="1">
          <mxGeometry y="852" width="290" height="28" as="geometry" />
        </mxCell>
        <mxCell id="CDM7iMGNca0mMvF4ytL8-125" value="colocarBarcoJugador(int, int, boolean, int) : boolean" style="text;align=left;verticalAlign=top;spacingLeft=4;spacingRight=4;overflow=hidden;rotatable=0;points=[[0,0.5],[1,0.5]];portConstraint=eastwest;" parent="CDM7iMGNca0mMvF4ytL8-92" vertex="1">
          <mxGeometry y="880" width="290" height="28" as="geometry" />
        </mxCell>
        <mxCell id="CDM7iMGNca0mMvF4ytL8-126" value="disparar(int, int, Usuario) : ResultadoDisparo" style="text;align=left;verticalAlign=top;spacingLeft=4;spacingRight=4;overflow=hidden;rotatable=0;points=[[0,0.5],[1,0.5]];portConstraint=eastwest;" parent="CDM7iMGNca0mMvF4ytL8-92" vertex="1">
          <mxGeometry y="908" width="290" height="28" as="geometry" />
        </mxCell>
        <mxCell id="CDM7iMGNca0mMvF4ytL8-128" style="edgeStyle=orthogonalEdgeStyle;rounded=0;orthogonalLoop=1;jettySize=auto;html=1;exitX=1;exitY=0.5;exitDx=0;exitDy=0;entryX=0.25;entryY=1;entryDx=0;entryDy=0;" parent="WIyWlLk6GJQsqaUBKTNV-1" source="CDM7iMGNca0mMvF4ytL8-124" target="CDM7iMGNca0mMvF4ytL8-47" edge="1">
          <mxGeometry relative="1" as="geometry">
            <Array as="points">
              <mxPoint x="200" y="856" />
              <mxPoint x="200" y="870" />
              <mxPoint x="460" y="870" />
            </Array>
          </mxGeometry>
        </mxCell>
        <mxCell id="CDM7iMGNca0mMvF4ytL8-145" style="edgeStyle=orthogonalEdgeStyle;rounded=0;orthogonalLoop=1;jettySize=auto;html=1;exitX=0.5;exitY=0;exitDx=0;exitDy=0;" parent="WIyWlLk6GJQsqaUBKTNV-1" source="CDM7iMGNca0mMvF4ytL8-129" edge="1">
          <mxGeometry relative="1" as="geometry">
            <mxPoint x="210" y="681" as="targetPoint" />
            <mxPoint x="270" y="941" as="sourcePoint" />
          </mxGeometry>
        </mxCell>
        <mxCell id="CDM7iMGNca0mMvF4ytL8-129" value="Jugador" style="swimlane;fontStyle=0;align=center;verticalAlign=top;childLayout=stackLayout;horizontal=1;startSize=26;horizontalStack=0;resizeParent=1;resizeLast=0;collapsible=1;marginBottom=0;rounded=0;shadow=0;strokeWidth=1;" parent="WIyWlLk6GJQsqaUBKTNV-1" vertex="1">
          <mxGeometry x="90" y="970" width="290" height="372" as="geometry">
            <mxRectangle x="550" y="140" width="160" height="26" as="alternateBounds" />
          </mxGeometry>
        </mxCell>
        <mxCell id="CDM7iMGNca0mMvF4ytL8-130" value="private ArrayList&lt;Observador&gt; observador" style="text;align=left;verticalAlign=top;spacingLeft=4;spacingRight=4;overflow=hidden;rotatable=0;points=[[0,0.5],[1,0.5]];portConstraint=eastwest;" parent="CDM7iMGNca0mMvF4ytL8-129" vertex="1">
          <mxGeometry y="26" width="290" height="26" as="geometry" />
        </mxCell>
        <mxCell id="CDM7iMGNca0mMvF4ytL8-131" value="private String[] disparosRecibidos" style="text;align=left;verticalAlign=top;spacingLeft=4;spacingRight=4;overflow=hidden;rotatable=0;points=[[0,0.5],[1,0.5]];portConstraint=eastwest;rounded=0;shadow=0;html=0;" parent="CDM7iMGNca0mMvF4ytL8-129" vertex="1">
          <mxGeometry y="52" width="290" height="26" as="geometry" />
        </mxCell>
        <mxCell id="CDM7iMGNca0mMvF4ytL8-132" value="private int xRecibido" style="text;align=left;verticalAlign=top;spacingLeft=4;spacingRight=4;overflow=hidden;rotatable=0;points=[[0,0.5],[1,0.5]];portConstraint=eastwest;rounded=0;shadow=0;html=0;" parent="CDM7iMGNca0mMvF4ytL8-129" vertex="1">
          <mxGeometry y="78" width="290" height="26" as="geometry" />
        </mxCell>
        <mxCell id="CDM7iMGNca0mMvF4ytL8-148" style="edgeStyle=orthogonalEdgeStyle;rounded=0;orthogonalLoop=1;jettySize=auto;html=1;exitX=1;exitY=0.5;exitDx=0;exitDy=0;" parent="CDM7iMGNca0mMvF4ytL8-129" edge="1">
          <mxGeometry relative="1" as="geometry">
            <mxPoint x="1030" y="-114" as="targetPoint" />
            <mxPoint x="290" y="103" as="sourcePoint" />
            <Array as="points">
              <mxPoint x="290" y="36" />
              <mxPoint x="1031" y="36" />
              <mxPoint x="1031" y="-114" />
            </Array>
          </mxGeometry>
        </mxCell>
        <mxCell id="CDM7iMGNca0mMvF4ytL8-142" value="private int yRecibido" style="text;align=left;verticalAlign=top;spacingLeft=4;spacingRight=4;overflow=hidden;rotatable=0;points=[[0,0.5],[1,0.5]];portConstraint=eastwest;rounded=0;shadow=0;html=0;" parent="CDM7iMGNca0mMvF4ytL8-129" vertex="1">
          <mxGeometry y="104" width="290" height="26" as="geometry" />
        </mxCell>
        <mxCell id="CDM7iMGNca0mMvF4ytL8-143" value="private ResultadoDisparo ultimoRecibido" style="text;align=left;verticalAlign=top;spacingLeft=4;spacingRight=4;overflow=hidden;rotatable=0;points=[[0,0.5],[1,0.5]];portConstraint=eastwest;rounded=0;shadow=0;html=0;" parent="CDM7iMGNca0mMvF4ytL8-129" vertex="1">
          <mxGeometry y="130" width="290" height="26" as="geometry" />
        </mxCell>
        <mxCell id="CDM7iMGNca0mMvF4ytL8-144" value="private boolean recibioDisparo" style="text;align=left;verticalAlign=top;spacingLeft=4;spacingRight=4;overflow=hidden;rotatable=0;points=[[0,0.5],[1,0.5]];portConstraint=eastwest;rounded=0;shadow=0;html=0;" parent="CDM7iMGNca0mMvF4ytL8-129" vertex="1">
          <mxGeometry y="156" width="290" height="26" as="geometry" />
        </mxCell>
        <mxCell id="CDM7iMGNca0mMvF4ytL8-133" value="" style="line;html=1;strokeWidth=1;align=left;verticalAlign=middle;spacingTop=-1;spacingLeft=3;spacingRight=3;rotatable=0;labelPosition=right;points=[];portConstraint=eastwest;" parent="CDM7iMGNca0mMvF4ytL8-129" vertex="1">
          <mxGeometry y="182" width="290" height="8" as="geometry" />
        </mxCell>
        <mxCell id="CDM7iMGNca0mMvF4ytL8-134" value="notificar()" style="text;align=left;verticalAlign=top;spacingLeft=4;spacingRight=4;overflow=hidden;rotatable=0;points=[[0,0.5],[1,0.5]];portConstraint=eastwest;" parent="CDM7iMGNca0mMvF4ytL8-129" vertex="1">
          <mxGeometry y="190" width="290" height="26" as="geometry" />
        </mxCell>
        <mxCell id="CDM7iMGNca0mMvF4ytL8-135" value="addObservador(Observador)" style="text;align=left;verticalAlign=top;spacingLeft=4;spacingRight=4;overflow=hidden;rotatable=0;points=[[0,0.5],[1,0.5]];portConstraint=eastwest;" parent="CDM7iMGNca0mMvF4ytL8-129" vertex="1">
          <mxGeometry y="216" width="290" height="26" as="geometry" />
        </mxCell>
        <mxCell id="CDM7iMGNca0mMvF4ytL8-136" value="colocarBarcoJugador(int, int. boolean, int) : boolean" style="text;align=left;verticalAlign=top;spacingLeft=4;spacingRight=4;overflow=hidden;rotatable=0;points=[[0,0.5],[1,0.5]];portConstraint=eastwest;" parent="CDM7iMGNca0mMvF4ytL8-129" vertex="1">
          <mxGeometry y="242" width="290" height="26" as="geometry" />
        </mxCell>
        <mxCell id="CDM7iMGNca0mMvF4ytL8-137" value="disparar(int, int, Usuario) : ResultadoDisparo" style="text;align=left;verticalAlign=top;spacingLeft=4;spacingRight=4;overflow=hidden;rotatable=0;points=[[0,0.5],[1,0.5]];portConstraint=eastwest;" parent="CDM7iMGNca0mMvF4ytL8-129" vertex="1">
          <mxGeometry y="268" width="290" height="26" as="geometry" />
        </mxCell>
        <mxCell id="CDM7iMGNca0mMvF4ytL8-138" value="inicializarDisparosRecibidos()" style="text;align=left;verticalAlign=top;spacingLeft=4;spacingRight=4;overflow=hidden;rotatable=0;points=[[0,0.5],[1,0.5]];portConstraint=eastwest;" parent="CDM7iMGNca0mMvF4ytL8-129" vertex="1">
          <mxGeometry y="294" width="290" height="26" as="geometry" />
        </mxCell>
        <mxCell id="CDM7iMGNca0mMvF4ytL8-139" value="registrarDisparoRecibido(ResultadoDisparo, int, int)" style="text;align=left;verticalAlign=top;spacingLeft=4;spacingRight=4;overflow=hidden;rotatable=0;points=[[0,0.5],[1,0.5]];portConstraint=eastwest;" parent="CDM7iMGNca0mMvF4ytL8-129" vertex="1">
          <mxGeometry y="320" width="290" height="26" as="geometry" />
        </mxCell>
        <mxCell id="CDM7iMGNca0mMvF4ytL8-140" value="reiniciarJugador()" style="text;align=left;verticalAlign=top;spacingLeft=4;spacingRight=4;overflow=hidden;rotatable=0;points=[[0,0.5],[1,0.5]];portConstraint=eastwest;" parent="CDM7iMGNca0mMvF4ytL8-129" vertex="1">
          <mxGeometry y="346" width="290" height="26" as="geometry" />
        </mxCell>
        <mxCell id="CDM7iMGNca0mMvF4ytL8-146" value="extends" style="endArrow=block;endSize=10;endFill=0;shadow=0;strokeWidth=1;rounded=0;curved=0;edgeStyle=elbowEdgeStyle;elbow=vertical;entryX=0.666;entryY=1.087;entryDx=0;entryDy=0;exitX=0;exitY=0.5;exitDx=0;exitDy=0;entryPerimeter=0;" parent="WIyWlLk6GJQsqaUBKTNV-1" target="CDM7iMGNca0mMvF4ytL8-126" edge="1">
          <mxGeometry width="160" relative="1" as="geometry">
            <mxPoint x="90" y="1011" as="sourcePoint" />
            <mxPoint x="-135.41000000000008" y="946.0039999999999" as="targetPoint" />
            <Array as="points">
              <mxPoint x="-62" y="1016" />
            </Array>
          </mxGeometry>
        </mxCell>
        <mxCell id="CDM7iMGNca0mMvF4ytL8-147" value="implements" style="endArrow=block;endSize=10;endFill=0;shadow=0;strokeWidth=1;rounded=0;curved=0;edgeStyle=elbowEdgeStyle;elbow=vertical;entryX=0.25;entryY=1;entryDx=0;entryDy=0;exitX=1;exitY=0.5;exitDx=0;exitDy=0;" parent="WIyWlLk6GJQsqaUBKTNV-1" source="CDM7iMGNca0mMvF4ytL8-131" target="CDM7iMGNca0mMvF4ytL8-77" edge="1">
          <mxGeometry width="160" relative="1" as="geometry">
            <mxPoint x="380" y="1031" as="sourcePoint" />
            <mxPoint x="570" y="1044" as="targetPoint" />
            <Array as="points">
              <mxPoint x="560" y="970" />
            </Array>
          </mxGeometry>
        </mxCell>
        <mxCell id="CDM7iMGNca0mMvF4ytL8-151" value="IA" style="swimlane;fontStyle=0;align=center;verticalAlign=top;childLayout=stackLayout;horizontal=1;startSize=26;horizontalStack=0;resizeParent=1;resizeLast=0;collapsible=1;marginBottom=0;rounded=0;shadow=0;strokeWidth=1;" parent="WIyWlLk6GJQsqaUBKTNV-1" vertex="1">
          <mxGeometry x="-490" y="1000" width="290" height="280" as="geometry">
            <mxRectangle x="550" y="140" width="160" height="26" as="alternateBounds" />
          </mxGeometry>
        </mxCell>
        <mxCell id="CDM7iMGNca0mMvF4ytL8-152" value="private Random r" style="text;align=left;verticalAlign=top;spacingLeft=4;spacingRight=4;overflow=hidden;rotatable=0;points=[[0,0.5],[1,0.5]];portConstraint=eastwest;" parent="CDM7iMGNca0mMvF4ytL8-151" vertex="1">
          <mxGeometry y="26" width="290" height="26" as="geometry" />
        </mxCell>
        <mxCell id="CDM7iMGNca0mMvF4ytL8-153" value="private List&lt;int[]&gt; puntos" style="text;align=left;verticalAlign=top;spacingLeft=4;spacingRight=4;overflow=hidden;rotatable=0;points=[[0,0.5],[1,0.5]];portConstraint=eastwest;rounded=0;shadow=0;html=0;" parent="CDM7iMGNca0mMvF4ytL8-151" vertex="1">
          <mxGeometry y="52" width="290" height="26" as="geometry" />
        </mxCell>
        <mxCell id="CDM7iMGNca0mMvF4ytL8-159" value="" style="line;html=1;strokeWidth=1;align=left;verticalAlign=middle;spacingTop=-1;spacingLeft=3;spacingRight=3;rotatable=0;labelPosition=right;points=[];portConstraint=eastwest;" parent="CDM7iMGNca0mMvF4ytL8-151" vertex="1">
          <mxGeometry y="78" width="290" height="8" as="geometry" />
        </mxCell>
        <mxCell id="CDM7iMGNca0mMvF4ytL8-162" value="colocarBarcoJugador(int, int. boolean, int) : boolean" style="text;align=left;verticalAlign=top;spacingLeft=4;spacingRight=4;overflow=hidden;rotatable=0;points=[[0,0.5],[1,0.5]];portConstraint=eastwest;" parent="CDM7iMGNca0mMvF4ytL8-151" vertex="1">
          <mxGeometry y="86" width="290" height="26" as="geometry" />
        </mxCell>
        <mxCell id="CDM7iMGNca0mMvF4ytL8-163" value="disparar(int, int, Usuario) : ResultadoDisparo" style="text;align=left;verticalAlign=top;spacingLeft=4;spacingRight=4;overflow=hidden;rotatable=0;points=[[0,0.5],[1,0.5]];portConstraint=eastwest;" parent="CDM7iMGNca0mMvF4ytL8-151" vertex="1">
          <mxGeometry y="112" width="290" height="26" as="geometry" />
        </mxCell>
        <mxCell id="CDM7iMGNca0mMvF4ytL8-164" value="colocarBarcoIA() : boolean" style="text;align=left;verticalAlign=top;spacingLeft=4;spacingRight=4;overflow=hidden;rotatable=0;points=[[0,0.5],[1,0.5]];portConstraint=eastwest;" parent="CDM7iMGNca0mMvF4ytL8-151" vertex="1">
          <mxGeometry y="138" width="290" height="26" as="geometry" />
        </mxCell>
        <mxCell id="CDM7iMGNca0mMvF4ytL8-165" value="dispararIA(Usuario) : ResultadoDisparo" style="text;align=left;verticalAlign=top;spacingLeft=4;spacingRight=4;overflow=hidden;rotatable=0;points=[[0,0.5],[1,0.5]];portConstraint=eastwest;" parent="CDM7iMGNca0mMvF4ytL8-151" vertex="1">
          <mxGeometry y="164" width="290" height="26" as="geometry" />
        </mxCell>
        <mxCell id="CDM7iMGNca0mMvF4ytL8-166" value="posiblesPuntos(int, int)" style="text;align=left;verticalAlign=top;spacingLeft=4;spacingRight=4;overflow=hidden;rotatable=0;points=[[0,0.5],[1,0.5]];portConstraint=eastwest;" parent="CDM7iMGNca0mMvF4ytL8-151" vertex="1">
          <mxGeometry y="190" width="290" height="26" as="geometry" />
        </mxCell>
        <mxCell id="CDM7iMGNca0mMvF4ytL8-167" value="disparoValido(int, int) : boolean" style="text;align=left;verticalAlign=top;spacingLeft=4;spacingRight=4;overflow=hidden;rotatable=0;points=[[0,0.5],[1,0.5]];portConstraint=eastwest;" parent="CDM7iMGNca0mMvF4ytL8-151" vertex="1">
          <mxGeometry y="216" width="290" height="26" as="geometry" />
        </mxCell>
        <mxCell id="CDM7iMGNca0mMvF4ytL8-168" value="reiniciarIA()" style="text;align=left;verticalAlign=top;spacingLeft=4;spacingRight=4;overflow=hidden;rotatable=0;points=[[0,0.5],[1,0.5]];portConstraint=eastwest;" parent="CDM7iMGNca0mMvF4ytL8-151" vertex="1">
          <mxGeometry y="242" width="290" height="26" as="geometry" />
        </mxCell>
        <mxCell id="CDM7iMGNca0mMvF4ytL8-169" style="edgeStyle=orthogonalEdgeStyle;rounded=0;orthogonalLoop=1;jettySize=auto;html=1;exitX=1;exitY=0.5;exitDx=0;exitDy=0;" parent="WIyWlLk6GJQsqaUBKTNV-1" source="CDM7iMGNca0mMvF4ytL8-153" target="CDM7iMGNca0mMvF4ytL8-74" edge="1">
          <mxGeometry relative="1" as="geometry">
            <Array as="points">
              <mxPoint x="30" y="1065" />
              <mxPoint x="30" y="667" />
            </Array>
          </mxGeometry>
        </mxCell>
        <mxCell id="CDM7iMGNca0mMvF4ytL8-170" value="extends" style="endArrow=block;endSize=10;endFill=0;shadow=0;strokeWidth=1;rounded=0;curved=0;edgeStyle=elbowEdgeStyle;elbow=vertical;exitX=0.25;exitY=0;exitDx=0;exitDy=0;entryX=0.065;entryY=1.138;entryDx=0;entryDy=0;entryPerimeter=0;" parent="WIyWlLk6GJQsqaUBKTNV-1" target="CDM7iMGNca0mMvF4ytL8-126" edge="1">
          <mxGeometry width="160" relative="1" as="geometry">
            <mxPoint x="-417.5" y="1000" as="sourcePoint" />
            <mxPoint x="-340" y="960" as="targetPoint" />
            <Array as="points">
              <mxPoint x="-360" y="960" />
            </Array>
          </mxGeometry>
        </mxCell>
        <mxCell id="Z4XQIEd8VPX2jX7vDxMK-0" value="Juego" style="swimlane;fontStyle=0;align=center;verticalAlign=top;childLayout=stackLayout;horizontal=1;startSize=26;horizontalStack=0;resizeParent=1;resizeLast=0;collapsible=1;marginBottom=0;rounded=0;shadow=0;strokeWidth=1;" vertex="1" parent="WIyWlLk6GJQsqaUBKTNV-1">
          <mxGeometry x="-620" y="-180" width="240" height="398" as="geometry">
            <mxRectangle x="550" y="140" width="160" height="26" as="alternateBounds" />
          </mxGeometry>
        </mxCell>
        <mxCell id="Z4XQIEd8VPX2jX7vDxMK-1" value="private Jugador jugador1" style="text;align=left;verticalAlign=top;spacingLeft=4;spacingRight=4;overflow=hidden;rotatable=0;points=[[0,0.5],[1,0.5]];portConstraint=eastwest;" vertex="1" parent="Z4XQIEd8VPX2jX7vDxMK-0">
          <mxGeometry y="26" width="240" height="26" as="geometry" />
        </mxCell>
        <mxCell id="Z4XQIEd8VPX2jX7vDxMK-2" value="private Jugador jugador2" style="text;align=left;verticalAlign=top;spacingLeft=4;spacingRight=4;overflow=hidden;rotatable=0;points=[[0,0.5],[1,0.5]];portConstraint=eastwest;rounded=0;shadow=0;html=0;" vertex="1" parent="Z4XQIEd8VPX2jX7vDxMK-0">
          <mxGeometry y="52" width="240" height="26" as="geometry" />
        </mxCell>
        <mxCell id="Z4XQIEd8VPX2jX7vDxMK-3" value="private IA ia" style="text;align=left;verticalAlign=top;spacingLeft=4;spacingRight=4;overflow=hidden;rotatable=0;points=[[0,0.5],[1,0.5]];portConstraint=eastwest;rounded=0;shadow=0;html=0;" vertex="1" parent="Z4XQIEd8VPX2jX7vDxMK-0">
          <mxGeometry y="78" width="240" height="26" as="geometry" />
        </mxCell>
        <mxCell id="Z4XQIEd8VPX2jX7vDxMK-13" value="private Usuario turnoActual" style="text;align=left;verticalAlign=top;spacingLeft=4;spacingRight=4;overflow=hidden;rotatable=0;points=[[0,0.5],[1,0.5]];portConstraint=eastwest;rounded=0;shadow=0;html=0;" vertex="1" parent="Z4XQIEd8VPX2jX7vDxMK-0">
          <mxGeometry y="104" width="240" height="26" as="geometry" />
        </mxCell>
        <mxCell id="Z4XQIEd8VPX2jX7vDxMK-4" value="" style="line;html=1;strokeWidth=1;align=left;verticalAlign=middle;spacingTop=-1;spacingLeft=3;spacingRight=3;rotatable=0;labelPosition=right;points=[];portConstraint=eastwest;" vertex="1" parent="Z4XQIEd8VPX2jX7vDxMK-0">
          <mxGeometry y="130" width="240" height="8" as="geometry" />
        </mxCell>
        <mxCell id="Z4XQIEd8VPX2jX7vDxMK-5" value="setPartidaIA(String)" style="text;align=left;verticalAlign=top;spacingLeft=4;spacingRight=4;overflow=hidden;rotatable=0;points=[[0,0.5],[1,0.5]];portConstraint=eastwest;" vertex="1" parent="Z4XQIEd8VPX2jX7vDxMK-0">
          <mxGeometry y="138" width="240" height="26" as="geometry" />
        </mxCell>
        <mxCell id="Z4XQIEd8VPX2jX7vDxMK-6" value="reiniciarPartidaIA()" style="text;align=left;verticalAlign=top;spacingLeft=4;spacingRight=4;overflow=hidden;rotatable=0;points=[[0,0.5],[1,0.5]];portConstraint=eastwest;" vertex="1" parent="Z4XQIEd8VPX2jX7vDxMK-0">
          <mxGeometry y="164" width="240" height="26" as="geometry" />
        </mxCell>
        <mxCell id="Z4XQIEd8VPX2jX7vDxMK-7" value="cargarBarcosJugadores(Usuario)" style="text;align=left;verticalAlign=top;spacingLeft=4;spacingRight=4;overflow=hidden;rotatable=0;points=[[0,0.5],[1,0.5]];portConstraint=eastwest;" vertex="1" parent="Z4XQIEd8VPX2jX7vDxMK-0">
          <mxGeometry y="190" width="240" height="26" as="geometry" />
        </mxCell>
        <mxCell id="Z4XQIEd8VPX2jX7vDxMK-8" value="determinarGanador() : Usuario" style="text;align=left;verticalAlign=top;spacingLeft=4;spacingRight=4;overflow=hidden;rotatable=0;points=[[0,0.5],[1,0.5]];portConstraint=eastwest;" vertex="1" parent="Z4XQIEd8VPX2jX7vDxMK-0">
          <mxGeometry y="216" width="240" height="26" as="geometry" />
        </mxCell>
        <mxCell id="Z4XQIEd8VPX2jX7vDxMK-9" value="determinarTurno()" style="text;align=left;verticalAlign=top;spacingLeft=4;spacingRight=4;overflow=hidden;rotatable=0;points=[[0,0.5],[1,0.5]];portConstraint=eastwest;" vertex="1" parent="Z4XQIEd8VPX2jX7vDxMK-0">
          <mxGeometry y="242" width="240" height="26" as="geometry" />
        </mxCell>
        <mxCell id="Z4XQIEd8VPX2jX7vDxMK-10" value="verificarCoordenadas(int, int) : boolean" style="text;align=left;verticalAlign=top;spacingLeft=4;spacingRight=4;overflow=hidden;rotatable=0;points=[[0,0.5],[1,0.5]];portConstraint=eastwest;" vertex="1" parent="Z4XQIEd8VPX2jX7vDxMK-0">
          <mxGeometry y="268" width="240" height="26" as="geometry" />
        </mxCell>
        <mxCell id="Z4XQIEd8VPX2jX7vDxMK-11" value="getJugador1() : Jugador" style="text;align=left;verticalAlign=top;spacingLeft=4;spacingRight=4;overflow=hidden;rotatable=0;points=[[0,0.5],[1,0.5]];portConstraint=eastwest;" vertex="1" parent="Z4XQIEd8VPX2jX7vDxMK-0">
          <mxGeometry y="294" width="240" height="26" as="geometry" />
        </mxCell>
        <mxCell id="Z4XQIEd8VPX2jX7vDxMK-12" value="getJugador2() : Jugador" style="text;align=left;verticalAlign=top;spacingLeft=4;spacingRight=4;overflow=hidden;rotatable=0;points=[[0,0.5],[1,0.5]];portConstraint=eastwest;" vertex="1" parent="Z4XQIEd8VPX2jX7vDxMK-0">
          <mxGeometry y="320" width="240" height="26" as="geometry" />
        </mxCell>
        <mxCell id="Z4XQIEd8VPX2jX7vDxMK-14" value="getIA() : IA" style="text;align=left;verticalAlign=top;spacingLeft=4;spacingRight=4;overflow=hidden;rotatable=0;points=[[0,0.5],[1,0.5]];portConstraint=eastwest;" vertex="1" parent="Z4XQIEd8VPX2jX7vDxMK-0">
          <mxGeometry y="346" width="240" height="26" as="geometry" />
        </mxCell>
        <mxCell id="Z4XQIEd8VPX2jX7vDxMK-15" value="getTurnoActual() : Usuario" style="text;align=left;verticalAlign=top;spacingLeft=4;spacingRight=4;overflow=hidden;rotatable=0;points=[[0,0.5],[1,0.5]];portConstraint=eastwest;" vertex="1" parent="Z4XQIEd8VPX2jX7vDxMK-0">
          <mxGeometry y="372" width="240" height="26" as="geometry" />
        </mxCell>
        <mxCell id="Z4XQIEd8VPX2jX7vDxMK-16" style="edgeStyle=orthogonalEdgeStyle;rounded=0;orthogonalLoop=1;jettySize=auto;html=1;exitX=1;exitY=0.5;exitDx=0;exitDy=0;entryX=0;entryY=0.5;entryDx=0;entryDy=0;" edge="1" parent="WIyWlLk6GJQsqaUBKTNV-1" source="Z4XQIEd8VPX2jX7vDxMK-10" target="CDM7iMGNca0mMvF4ytL8-96">
          <mxGeometry relative="1" as="geometry" />
        </mxCell>
        <mxCell id="Z4XQIEd8VPX2jX7vDxMK-18" value="" style="endArrow=classic;html=1;rounded=0;exitX=0.746;exitY=1;exitDx=0;exitDy=0;exitPerimeter=0;entryX=0.179;entryY=-0.004;entryDx=0;entryDy=0;entryPerimeter=0;" edge="1" parent="WIyWlLk6GJQsqaUBKTNV-1" source="Z4XQIEd8VPX2jX7vDxMK-15" target="CDM7iMGNca0mMvF4ytL8-151">
          <mxGeometry width="50" height="50" relative="1" as="geometry">
            <mxPoint x="-470" y="250" as="sourcePoint" />
            <mxPoint x="-430" y="310" as="targetPoint" />
          </mxGeometry>
        </mxCell>
        <mxCell id="Z4XQIEd8VPX2jX7vDxMK-19" value="" style="endArrow=classic;html=1;rounded=0;exitX=0.37;exitY=1.016;exitDx=0;exitDy=0;exitPerimeter=0;entryX=0;entryY=0.5;entryDx=0;entryDy=0;" edge="1" parent="WIyWlLk6GJQsqaUBKTNV-1" source="Z4XQIEd8VPX2jX7vDxMK-15" target="CDM7iMGNca0mMvF4ytL8-140">
          <mxGeometry width="50" height="50" relative="1" as="geometry">
            <mxPoint x="-530" y="228" as="sourcePoint" />
            <mxPoint x="-527" y="1009" as="targetPoint" />
            <Array as="points">
              <mxPoint x="-530" y="1330" />
            </Array>
          </mxGeometry>
        </mxCell>
        <mxCell id="Z4XQIEd8VPX2jX7vDxMK-20" value="" style="endArrow=classic;html=1;rounded=0;exitX=1;exitY=0.5;exitDx=0;exitDy=0;entryX=0;entryY=0.25;entryDx=0;entryDy=0;" edge="1" parent="WIyWlLk6GJQsqaUBKTNV-1" source="Z4XQIEd8VPX2jX7vDxMK-13" target="CDM7iMGNca0mMvF4ytL8-69">
          <mxGeometry width="50" height="50" relative="1" as="geometry">
            <mxPoint x="-60" y="210" as="sourcePoint" />
            <mxPoint x="-10" y="590" as="targetPoint" />
            <Array as="points">
              <mxPoint x="-10" y="-60" />
              <mxPoint x="-10" y="583" />
            </Array>
          </mxGeometry>
        </mxCell>
        <mxCell id="Z4XQIEd8VPX2jX7vDxMK-21" value="VistaInt" style="swimlane;fontStyle=0;align=center;verticalAlign=top;childLayout=stackLayout;horizontal=1;startSize=26;horizontalStack=0;resizeParent=1;resizeLast=0;collapsible=1;marginBottom=0;rounded=0;shadow=0;strokeWidth=1;" vertex="1" parent="WIyWlLk6GJQsqaUBKTNV-1">
          <mxGeometry x="1090" y="10" width="390" height="494" as="geometry">
            <mxRectangle x="340" y="380" width="170" height="26" as="alternateBounds" />
          </mxGeometry>
        </mxCell>
        <mxCell id="Z4XQIEd8VPX2jX7vDxMK-22" value="bienvenida()" style="text;align=left;verticalAlign=top;spacingLeft=4;spacingRight=4;overflow=hidden;rotatable=0;points=[[0,0.5],[1,0.5]];portConstraint=eastwest;" vertex="1" parent="Z4XQIEd8VPX2jX7vDxMK-21">
          <mxGeometry y="26" width="390" height="26" as="geometry" />
        </mxCell>
        <mxCell id="Z4XQIEd8VPX2jX7vDxMK-23" value="mostrarMenu() : int" style="text;align=left;verticalAlign=top;spacingLeft=4;spacingRight=4;overflow=hidden;rotatable=0;points=[[0,0.5],[1,0.5]];portConstraint=eastwest;" vertex="1" parent="Z4XQIEd8VPX2jX7vDxMK-21">
          <mxGeometry y="52" width="390" height="26" as="geometry" />
        </mxCell>
        <mxCell id="Z4XQIEd8VPX2jX7vDxMK-24" value="opcionIncorrecta()" style="text;align=left;verticalAlign=top;spacingLeft=4;spacingRight=4;overflow=hidden;rotatable=0;points=[[0,0.5],[1,0.5]];portConstraint=eastwest;" vertex="1" parent="Z4XQIEd8VPX2jX7vDxMK-21">
          <mxGeometry y="78" width="390" height="26" as="geometry" />
        </mxCell>
        <mxCell id="Z4XQIEd8VPX2jX7vDxMK-25" value="mostrarTablero(ModeloBarco[][] tablero)" style="text;align=left;verticalAlign=top;spacingLeft=4;spacingRight=4;overflow=hidden;rotatable=0;points=[[0,0.5],[1,0.5]];portConstraint=eastwest;" vertex="1" parent="Z4XQIEd8VPX2jX7vDxMK-21">
          <mxGeometry y="104" width="390" height="26" as="geometry" />
        </mxCell>
        <mxCell id="Z4XQIEd8VPX2jX7vDxMK-26" value="mostrarTableroEnemigo(String[][] tablero)" style="text;align=left;verticalAlign=top;spacingLeft=4;spacingRight=4;overflow=hidden;rotatable=0;points=[[0,0.5],[1,0.5]];portConstraint=eastwest;" vertex="1" parent="Z4XQIEd8VPX2jX7vDxMK-21">
          <mxGeometry y="130" width="390" height="26" as="geometry" />
        </mxCell>
        <mxCell id="Z4XQIEd8VPX2jX7vDxMK-27" value="actualizarTableroEnemigo(ResultadoDisparo, int, int, String[][] tablero)" style="text;align=left;verticalAlign=top;spacingLeft=4;spacingRight=4;overflow=hidden;rotatable=0;points=[[0,0.5],[1,0.5]];portConstraint=eastwest;" vertex="1" parent="Z4XQIEd8VPX2jX7vDxMK-21">
          <mxGeometry y="156" width="390" height="26" as="geometry" />
        </mxCell>
        <mxCell id="Z4XQIEd8VPX2jX7vDxMK-28" value="pedirBarcoAColocar(Usuario) : int" style="text;align=left;verticalAlign=top;spacingLeft=4;spacingRight=4;overflow=hidden;rotatable=0;points=[[0,0.5],[1,0.5]];portConstraint=eastwest;" vertex="1" parent="Z4XQIEd8VPX2jX7vDxMK-21">
          <mxGeometry y="182" width="390" height="26" as="geometry" />
        </mxCell>
        <mxCell id="Z4XQIEd8VPX2jX7vDxMK-29" value="mostrarBarcosJugador(ModeloBarco[])" style="text;align=left;verticalAlign=top;spacingLeft=4;spacingRight=4;overflow=hidden;rotatable=0;points=[[0,0.5],[1,0.5]];portConstraint=eastwest;" vertex="1" parent="Z4XQIEd8VPX2jX7vDxMK-21">
          <mxGeometry y="208" width="390" height="26" as="geometry" />
        </mxCell>
        <mxCell id="Z4XQIEd8VPX2jX7vDxMK-30" value="pedirX() : int" style="text;align=left;verticalAlign=top;spacingLeft=4;spacingRight=4;overflow=hidden;rotatable=0;points=[[0,0.5],[1,0.5]];portConstraint=eastwest;" vertex="1" parent="Z4XQIEd8VPX2jX7vDxMK-21">
          <mxGeometry y="234" width="390" height="26" as="geometry" />
        </mxCell>
        <mxCell id="Z4XQIEd8VPX2jX7vDxMK-31" value="pedirY() : int" style="text;align=left;verticalAlign=top;spacingLeft=4;spacingRight=4;overflow=hidden;rotatable=0;points=[[0,0.5],[1,0.5]];portConstraint=eastwest;" vertex="1" parent="Z4XQIEd8VPX2jX7vDxMK-21">
          <mxGeometry y="260" width="390" height="26" as="geometry" />
        </mxCell>
        <mxCell id="Z4XQIEd8VPX2jX7vDxMK-32" value="pedirVertical() : boolean" style="text;align=left;verticalAlign=top;spacingLeft=4;spacingRight=4;overflow=hidden;rotatable=0;points=[[0,0.5],[1,0.5]];portConstraint=eastwest;" vertex="1" parent="Z4XQIEd8VPX2jX7vDxMK-21">
          <mxGeometry y="286" width="390" height="26" as="geometry" />
        </mxCell>
        <mxCell id="Z4XQIEd8VPX2jX7vDxMK-33" value="pedirNombreJugador() : String" style="text;align=left;verticalAlign=top;spacingLeft=4;spacingRight=4;overflow=hidden;rotatable=0;points=[[0,0.5],[1,0.5]];portConstraint=eastwest;" vertex="1" parent="Z4XQIEd8VPX2jX7vDxMK-21">
          <mxGeometry y="312" width="390" height="26" as="geometry" />
        </mxCell>
        <mxCell id="Z4XQIEd8VPX2jX7vDxMK-34" value="mostrarTurno(Usuario)" style="text;align=left;verticalAlign=top;spacingLeft=4;spacingRight=4;overflow=hidden;rotatable=0;points=[[0,0.5],[1,0.5]];portConstraint=eastwest;" vertex="1" parent="Z4XQIEd8VPX2jX7vDxMK-21">
          <mxGeometry y="338" width="390" height="26" as="geometry" />
        </mxCell>
        <mxCell id="Z4XQIEd8VPX2jX7vDxMK-35" value="errorAlColocar()" style="text;align=left;verticalAlign=top;spacingLeft=4;spacingRight=4;overflow=hidden;rotatable=0;points=[[0,0.5],[1,0.5]];portConstraint=eastwest;" vertex="1" parent="Z4XQIEd8VPX2jX7vDxMK-21">
          <mxGeometry y="364" width="390" height="26" as="geometry" />
        </mxCell>
        <mxCell id="Z4XQIEd8VPX2jX7vDxMK-36" value="mostrarTableroVacio()" style="text;align=left;verticalAlign=top;spacingLeft=4;spacingRight=4;overflow=hidden;rotatable=0;points=[[0,0.5],[1,0.5]];portConstraint=eastwest;" vertex="1" parent="Z4XQIEd8VPX2jX7vDxMK-21">
          <mxGeometry y="390" width="390" height="26" as="geometry" />
        </mxCell>
        <mxCell id="Z4XQIEd8VPX2jX7vDxMK-37" value="actualizarRecibido(ResultadoDisparo, int, int, String[][])" style="text;align=left;verticalAlign=top;spacingLeft=4;spacingRight=4;overflow=hidden;rotatable=0;points=[[0,0.5],[1,0.5]];portConstraint=eastwest;" vertex="1" parent="Z4XQIEd8VPX2jX7vDxMK-21">
          <mxGeometry y="416" width="390" height="26" as="geometry" />
        </mxCell>
        <mxCell id="Z4XQIEd8VPX2jX7vDxMK-38" value="mostrarGanador(Usuario)" style="text;align=left;verticalAlign=top;spacingLeft=4;spacingRight=4;overflow=hidden;rotatable=0;points=[[0,0.5],[1,0.5]];portConstraint=eastwest;" vertex="1" parent="Z4XQIEd8VPX2jX7vDxMK-21">
          <mxGeometry y="442" width="390" height="26" as="geometry" />
        </mxCell>
        <mxCell id="Z4XQIEd8VPX2jX7vDxMK-39" value="mostrarSalir()" style="text;align=left;verticalAlign=top;spacingLeft=4;spacingRight=4;overflow=hidden;rotatable=0;points=[[0,0.5],[1,0.5]];portConstraint=eastwest;" vertex="1" parent="Z4XQIEd8VPX2jX7vDxMK-21">
          <mxGeometry y="468" width="390" height="26" as="geometry" />
        </mxCell>
        <mxCell id="Z4XQIEd8VPX2jX7vDxMK-40" value="Vista" style="swimlane;fontStyle=0;align=center;verticalAlign=top;childLayout=stackLayout;horizontal=1;startSize=26;horizontalStack=0;resizeParent=1;resizeLast=0;collapsible=1;marginBottom=0;rounded=0;shadow=0;strokeWidth=1;" vertex="1" parent="WIyWlLk6GJQsqaUBKTNV-1">
          <mxGeometry x="1770" y="-50" width="210" height="150" as="geometry">
            <mxRectangle x="340" y="380" width="170" height="26" as="alternateBounds" />
          </mxGeometry>
        </mxCell>
        <mxCell id="Z4XQIEd8VPX2jX7vDxMK-47" value="private Scanner sc" style="text;align=left;verticalAlign=top;spacingLeft=4;spacingRight=4;overflow=hidden;rotatable=0;points=[[0,0.5],[1,0.5]];portConstraint=eastwest;" vertex="1" parent="Z4XQIEd8VPX2jX7vDxMK-40">
          <mxGeometry y="26" width="210" height="26" as="geometry" />
        </mxCell>
        <mxCell id="Z4XQIEd8VPX2jX7vDxMK-48" value="private String[] filas" style="text;align=left;verticalAlign=top;spacingLeft=4;spacingRight=4;overflow=hidden;rotatable=0;points=[[0,0.5],[1,0.5]];portConstraint=eastwest;" vertex="1" parent="Z4XQIEd8VPX2jX7vDxMK-40">
          <mxGeometry y="52" width="210" height="26" as="geometry" />
        </mxCell>
        <mxCell id="Z4XQIEd8VPX2jX7vDxMK-46" value="" style="line;html=1;strokeWidth=1;align=left;verticalAlign=middle;spacingTop=-1;spacingLeft=3;spacingRight=3;rotatable=0;labelPosition=right;points=[];portConstraint=eastwest;" vertex="1" parent="Z4XQIEd8VPX2jX7vDxMK-40">
          <mxGeometry y="78" width="210" height="12" as="geometry" />
        </mxCell>
        <mxCell id="Z4XQIEd8VPX2jX7vDxMK-41" value="Implementa metodos de la interfaz..." style="text;align=left;verticalAlign=top;spacingLeft=4;spacingRight=4;overflow=hidden;rotatable=0;points=[[0,0.5],[1,0.5]];portConstraint=eastwest;" vertex="1" parent="Z4XQIEd8VPX2jX7vDxMK-40">
          <mxGeometry y="90" width="210" height="26" as="geometry" />
        </mxCell>
        <mxCell id="Z4XQIEd8VPX2jX7vDxMK-42" value="esperar(int)" style="text;align=left;verticalAlign=top;spacingLeft=4;spacingRight=4;overflow=hidden;rotatable=0;points=[[0,0.5],[1,0.5]];portConstraint=eastwest;" vertex="1" parent="Z4XQIEd8VPX2jX7vDxMK-40">
          <mxGeometry y="116" width="210" height="26" as="geometry" />
        </mxCell>
        <mxCell id="Z4XQIEd8VPX2jX7vDxMK-44" value="implements" style="edgeStyle=orthogonalEdgeStyle;rounded=0;orthogonalLoop=1;jettySize=auto;html=1;exitX=0;exitY=0.5;exitDx=0;exitDy=0;entryX=1;entryY=0.5;entryDx=0;entryDy=0;endArrow=block;endFill=0;" edge="1" parent="WIyWlLk6GJQsqaUBKTNV-1" source="Z4XQIEd8VPX2jX7vDxMK-41" target="Z4XQIEd8VPX2jX7vDxMK-22">
          <mxGeometry relative="1" as="geometry" />
        </mxCell>
        <mxCell id="Z4XQIEd8VPX2jX7vDxMK-45" value="implements" style="edgeStyle=orthogonalEdgeStyle;rounded=0;orthogonalLoop=1;jettySize=auto;html=1;entryX=0.5;entryY=0;entryDx=0;entryDy=0;endArrow=block;endFill=0;" edge="1" parent="WIyWlLk6GJQsqaUBKTNV-1" target="CDM7iMGNca0mMvF4ytL8-84">
          <mxGeometry relative="1" as="geometry">
            <mxPoint x="1220" y="505" as="sourcePoint" />
            <mxPoint x="1220" y="705" as="targetPoint" />
          </mxGeometry>
        </mxCell>
        <mxCell id="Z4XQIEd8VPX2jX7vDxMK-49" value="Controlador" style="swimlane;fontStyle=0;align=center;verticalAlign=top;childLayout=stackLayout;horizontal=1;startSize=26;horizontalStack=0;resizeParent=1;resizeLast=0;collapsible=1;marginBottom=0;rounded=0;shadow=0;strokeWidth=1;" vertex="1" parent="WIyWlLk6GJQsqaUBKTNV-1">
          <mxGeometry x="1090" y="-250" width="210" height="150" as="geometry">
            <mxRectangle x="340" y="380" width="170" height="26" as="alternateBounds" />
          </mxGeometry>
        </mxCell>
        <mxCell id="Z4XQIEd8VPX2jX7vDxMK-50" value="private Juego juego" style="text;align=left;verticalAlign=top;spacingLeft=4;spacingRight=4;overflow=hidden;rotatable=0;points=[[0,0.5],[1,0.5]];portConstraint=eastwest;" vertex="1" parent="Z4XQIEd8VPX2jX7vDxMK-49">
          <mxGeometry y="26" width="210" height="26" as="geometry" />
        </mxCell>
        <mxCell id="Z4XQIEd8VPX2jX7vDxMK-51" value="private VistaInt vista" style="text;align=left;verticalAlign=top;spacingLeft=4;spacingRight=4;overflow=hidden;rotatable=0;points=[[0,0.5],[1,0.5]];portConstraint=eastwest;" vertex="1" parent="Z4XQIEd8VPX2jX7vDxMK-49">
          <mxGeometry y="52" width="210" height="26" as="geometry" />
        </mxCell>
        <mxCell id="Z4XQIEd8VPX2jX7vDxMK-52" value="" style="line;html=1;strokeWidth=1;align=left;verticalAlign=middle;spacingTop=-1;spacingLeft=3;spacingRight=3;rotatable=0;labelPosition=right;points=[];portConstraint=eastwest;" vertex="1" parent="Z4XQIEd8VPX2jX7vDxMK-49">
          <mxGeometry y="78" width="210" height="12" as="geometry" />
        </mxCell>
        <mxCell id="Z4XQIEd8VPX2jX7vDxMK-53" value="partidaIA()" style="text;align=left;verticalAlign=top;spacingLeft=4;spacingRight=4;overflow=hidden;rotatable=0;points=[[0,0.5],[1,0.5]];portConstraint=eastwest;" vertex="1" parent="Z4XQIEd8VPX2jX7vDxMK-49">
          <mxGeometry y="90" width="210" height="26" as="geometry" />
        </mxCell>
        <mxCell id="Z4XQIEd8VPX2jX7vDxMK-55" style="edgeStyle=orthogonalEdgeStyle;rounded=0;orthogonalLoop=1;jettySize=auto;html=1;exitX=1;exitY=0.5;exitDx=0;exitDy=0;entryX=0.5;entryY=0;entryDx=0;entryDy=0;" edge="1" parent="WIyWlLk6GJQsqaUBKTNV-1" source="Z4XQIEd8VPX2jX7vDxMK-51" target="Z4XQIEd8VPX2jX7vDxMK-40">
          <mxGeometry relative="1" as="geometry" />
        </mxCell>
        <mxCell id="Z4XQIEd8VPX2jX7vDxMK-56" style="edgeStyle=orthogonalEdgeStyle;rounded=0;orthogonalLoop=1;jettySize=auto;html=1;exitX=0;exitY=0.5;exitDx=0;exitDy=0;entryX=0.5;entryY=0;entryDx=0;entryDy=0;" edge="1" parent="WIyWlLk6GJQsqaUBKTNV-1" source="Z4XQIEd8VPX2jX7vDxMK-50" target="Z4XQIEd8VPX2jX7vDxMK-0">
          <mxGeometry relative="1" as="geometry">
            <Array as="points">
              <mxPoint x="1090" y="-240" />
              <mxPoint x="-500" y="-240" />
            </Array>
          </mxGeometry>
        </mxCell>
        <mxCell id="Z4XQIEd8VPX2jX7vDxMK-62" style="edgeStyle=orthogonalEdgeStyle;rounded=0;orthogonalLoop=1;jettySize=auto;html=1;exitX=0.5;exitY=1;exitDx=0;exitDy=0;entryX=0.5;entryY=0;entryDx=0;entryDy=0;" edge="1" parent="WIyWlLk6GJQsqaUBKTNV-1" source="Z4XQIEd8VPX2jX7vDxMK-57" target="Z4XQIEd8VPX2jX7vDxMK-49">
          <mxGeometry relative="1" as="geometry" />
        </mxCell>
        <mxCell id="Z4XQIEd8VPX2jX7vDxMK-57" value="BatallaNavalMain" style="swimlane;fontStyle=0;align=center;verticalAlign=top;childLayout=stackLayout;horizontal=1;startSize=26;horizontalStack=0;resizeParent=1;resizeLast=0;collapsible=1;marginBottom=0;rounded=0;shadow=0;strokeWidth=1;" vertex="1" parent="WIyWlLk6GJQsqaUBKTNV-1">
          <mxGeometry x="1090" y="-460" width="210" height="80" as="geometry">
            <mxRectangle x="340" y="380" width="170" height="26" as="alternateBounds" />
          </mxGeometry>
        </mxCell>
        <mxCell id="Z4XQIEd8VPX2jX7vDxMK-58" value="main()" style="text;align=left;verticalAlign=top;spacingLeft=4;spacingRight=4;overflow=hidden;rotatable=0;points=[[0,0.5],[1,0.5]];portConstraint=eastwest;" vertex="1" parent="Z4XQIEd8VPX2jX7vDxMK-57">
          <mxGeometry y="26" width="210" height="26" as="geometry" />
        </mxCell>
      </root>
    </mxGraphModel>
  </diagram>
</mxfile>
